<?xml version="1.0" standalone="no"?>
<!DOCTYPE svg PUBLIC "-//W3C//DTD SVG 20010904//EN"
 "http://www.w3.org/TR/2001/REC-SVG-20010904/DTD/svg10.dtd">
<svg version="1.0" xmlns="http://www.w3.org/2000/svg"
 width="960.000000pt" height="1280.000000pt" viewBox="0 0 960.000000 1280.000000"
 preserveAspectRatio="xMidYMid meet">

<g transform="translate(0.000000,1280.000000) scale(0.100000,-0.100000)"
fill="#000000" stroke="none">
<path d="M0 12176 l0 -625 22 -4 23 -4 -22 -8 c-22 -7 -23 -13 -23 -100 l0
-93 29 -7 c16 -3 37 -15 47 -26 22 -24 41 -24 49 0 3 10 19 24 35 31 16 7 41
22 54 35 14 13 31 25 38 28 18 6 48 -11 48 -28 0 -8 4 -15 10 -15 11 0 25 65
16 78 -3 6 8 8 27 7 17 -2 38 -3 45 -4 23 -2 -5 -38 -38 -49 -16 -6 -30 -18
-30 -26 0 -21 55 -48 84 -40 28 7 51 45 48 80 -1 13 3 24 8 24 6 0 10 -4 10
-10 0 -5 14 -10 30 -10 25 0 30 -4 30 -24 0 -13 -6 -27 -12 -29 -8 -3 -7 -6 4
-6 22 -1 32 -35 19 -60 -13 -24 -66 -37 -86 -21 -8 7 -31 16 -50 20 -28 6 -38
5 -42 -7 -3 -8 -27 -24 -52 -35 -56 -24 -150 -18 -197 13 -35 23 -44 24 -44 5
0 -16 -21 -26 -56 -26 -20 0 -24 -5 -24 -30 0 -25 4 -30 23 -30 13 0 32 -6 42
-14 28 -20 10 -74 -32 -95 l-33 -16 0 -227 c0 -172 3 -227 13 -231 9 -3 9 -9
0 -26 -10 -16 -13 -500 -13 -2325 l0 -2304 53 -6 c28 -4 83 -12 121 -18 39 -6
96 -8 129 -4 47 5 74 1 133 -19 68 -22 104 -24 104 -6 0 4 14 15 30 25 30 17
32 17 71 -3 22 -12 56 -21 77 -21 38 -1 88 -10 157 -30 22 -7 69 -14 103 -16
35 -2 71 -8 80 -13 10 -5 40 -5 71 0 38 6 69 4 108 -6 31 -8 60 -12 64 -9 11
6 10 129 -1 204 -5 35 -3 85 5 140 7 47 16 148 19 225 4 77 14 192 23 255 13
95 13 123 3 163 -25 98 10 329 72 475 46 107 87 168 121 177 31 9 135 53 177
75 19 10 73 30 120 44 93 28 137 48 470 207 124 59 275 128 335 155 131 56
142 64 267 171 87 75 97 88 103 126 16 102 52 172 42 80 -8 -68 5 -109 49
-160 33 -39 66 -60 48 -32 -12 19 -4 163 9 171 9 6 9 8 0 8 -7 0 -13 7 -13 15
0 9 6 12 18 8 24 -9 33 -25 21 -39 -7 -9 -6 -15 3 -21 7 -4 19 -21 26 -37 11
-24 11 -31 0 -37 -11 -7 -10 -9 1 -9 7 0 11 -6 7 -15 -3 -9 0 -15 9 -15 15 0
48 -58 39 -71 -3 -5 0 -9 7 -9 7 0 9 -10 7 -25 -4 -17 2 -31 18 -46 13 -12 33
-42 45 -66 11 -23 27 -43 35 -43 17 0 18 -16 2 -24 -7 -3 -2 -3 12 1 21 5 23
4 12 -9 -10 -12 -10 -18 2 -27 11 -9 15 -9 19 1 3 7 6 3 6 -10 l1 -22 37 20
c40 21 78 27 68 10 -3 -6 -17 -10 -29 -10 -38 0 -73 -43 -122 -147 -53 -115
-111 -282 -106 -305 5 -23 -39 -3 -70 31 -20 22 -38 37 -41 35 -2 -3 -7 7 -11
21 -4 14 -10 25 -15 25 -5 0 -2 -16 7 -34 9 -19 19 -33 23 -31 4 3 10 -2 13
-11 3 -8 2 -12 -4 -9 -17 11 -11 -8 24 -68 18 -31 35 -54 38 -51 3 3 5 -3 4
-13 0 -10 4 -17 11 -16 7 2 10 -3 7 -11 -3 -7 10 -33 28 -57 46 -61 98 -142
141 -221 21 -37 49 -81 63 -98 25 -29 26 -36 21 -103 -3 -40 -13 -128 -22
-196 -9 -68 -15 -142 -13 -164 l3 -39 60 77 c85 111 156 195 162 195 4 0 -1
-8 -9 -17 -40 -48 -176 -223 -200 -258 -18 -28 -29 -60 -34 -103 -4 -38 -12
-66 -20 -69 -9 -3 -11 -15 -7 -35 4 -22 3 -29 -5 -24 -7 4 -12 18 -12 32 0 13
-3 24 -6 24 -12 0 -30 -26 -26 -38 2 -6 0 -12 -5 -12 -5 0 -10 -27 -11 -61 -2
-33 -12 -84 -23 -112 -24 -62 -27 -117 -33 -531 -3 -169 -7 -311 -11 -314 -14
-14 -25 24 -50 173 -68 423 -74 466 -79 625 -2 91 -14 262 -25 380 -11 118
-25 294 -31 390 -13 205 -31 348 -61 480 -16 71 -20 114 -15 170 3 41 0 93 -5
115 -6 22 -12 94 -14 160 -3 127 -22 214 -26 125 -1 -25 -1 -61 0 -80 1 -19 3
-168 6 -330 2 -162 7 -304 9 -315 3 -11 8 -69 11 -130 4 -60 8 -116 10 -122 3
-7 7 -66 10 -130 3 -65 10 -190 15 -278 5 -88 9 -167 9 -175 1 -8 5 -80 11
-160 5 -80 12 -206 15 -280 3 -74 13 -252 22 -395 28 -440 22 -1417 -9 -1514
-6 -20 -8 -73 -5 -130 6 -111 -7 -295 -27 -396 -18 -86 -33 -181 -46 -300 -12
-101 -43 -275 -98 -535 -8 -42 -90 -360 -111 -435 -42 -151 -58 -201 -91 -290
-5 -11 -22 -67 -38 -125 -54 -184 -96 -300 -232 -640 -32 -80 -72 -181 -90
-225 -17 -44 -38 -95 -46 -113 -8 -18 -14 -39 -14 -47 0 -9 -4 -23 -10 -33 -5
-9 -19 -46 -31 -82 -11 -35 -36 -105 -55 -155 -20 -49 -42 -108 -50 -130 -9
-22 -22 -53 -30 -68 -8 -16 -14 -35 -14 -42 0 -8 -14 -23 -31 -35 l-30 -22
-25 23 c-13 12 -24 31 -24 41 0 10 -4 18 -9 18 -5 0 -11 11 -15 23 -8 35 -46
79 -62 73 -8 -3 -19 4 -25 16 -14 25 -49 57 -64 58 -5 0 -30 18 -53 41 l-44
40 7 -42 c7 -41 80 -283 91 -300 3 -5 600 -9 1434 -9 1131 0 1429 3 1433 13 4
9 6 9 6 0 1 -10 80 -13 360 -13 334 0 360 1 364 18 4 16 5 16 6 0 1 -14 10
-18 44 -18 24 0 49 6 55 12 10 10 17 10 33 0 15 -10 108 -12 383 -12 l364 1 6
34 c10 52 30 57 21 6 l-7 -41 211 0 c185 0 213 2 231 17 25 22 25 33 0 33 -13
0 -18 5 -14 15 4 9 14 13 28 9 11 -2 29 1 39 8 17 12 17 16 3 42 -10 20 -12
36 -5 53 13 36 11 43 -16 53 -14 5 -25 14 -25 20 0 6 -10 15 -22 19 l-23 9 25
10 c71 27 72 27 64 -13 -6 -35 -6 -36 20 -29 19 4 26 2 26 -8 0 -8 9 -23 20
-33 26 -24 25 -43 -2 -47 -16 -2 -24 -12 -29 -35 -4 -18 -3 -33 2 -33 5 0 8
-4 6 -10 -3 -14 71 -50 76 -36 3 10 18 2 73 -39 9 -6 19 -4 32 8 23 21 46 22
62 2 11 -13 61 -15 336 -15 l324 0 -6 40 c-6 36 -4 40 14 40 24 0 40 -36 23
-53 -6 -6 -11 -15 -11 -19 0 -4 105 -8 234 -8 l234 0 5 29 c5 22 13 30 36 34
17 4 41 3 53 -2 13 -4 35 -5 51 0 24 7 30 4 39 -17 6 -13 14 -24 18 -24 17 0
33 34 32 67 -3 68 30 92 72 54 24 -22 116 -71 132 -71 6 0 16 11 22 24 9 20
49 45 55 34 1 -1 12 -21 24 -43 28 -52 61 -70 99 -53 24 11 28 10 42 -10 11
-17 24 -22 59 -22 27 0 42 4 38 10 -4 6 -12 7 -18 4 -7 -4 -9 -4 -5 1 4 4 3
16 -3 27 -14 27 -3 65 21 73 11 3 20 14 20 24 0 24 15 35 77 57 29 10 53 24
53 30 0 30 72 22 100 -11 12 -15 12 -19 -4 -31 -16 -11 -17 -16 -6 -29 7 -8
19 -15 26 -15 8 0 19 -11 24 -25 11 -30 26 -32 40 -5 9 17 17 19 51 14 l40 -7
-3 44 c-3 42 -1 45 36 63 l39 19 -54 26 c-35 17 -59 36 -67 54 -8 16 -25 33
-38 39 -20 10 -28 8 -48 -11 -19 -18 -27 -20 -50 -11 -15 5 -32 8 -37 5 -5 -3
-29 1 -54 10 -67 22 -83 20 -77 -10 2 -14 8 -25 12 -25 5 0 3 -11 -3 -25 -7
-14 -15 -25 -19 -25 -5 0 -21 19 -38 43 -48 68 -50 70 -84 63 -17 -4 -35 -12
-41 -19 -5 -7 -23 -21 -39 -31 l-29 -18 5 25 c6 30 -12 38 -55 24 -37 -12 -35
-30 3 -22 26 6 31 3 40 -21 19 -49 10 -69 -31 -69 -20 0 -45 -7 -55 -16 -36
-32 -58 -31 -77 0 -9 16 -17 40 -17 54 0 17 -5 24 -16 23 -10 0 -18 8 -20 21
-4 27 11 30 24 6 9 -14 11 -14 22 6 6 13 10 24 8 25 -2 1 -16 12 -31 24 -16
11 -35 18 -43 15 -8 -3 -24 3 -34 12 -16 15 -25 16 -43 8 -28 -13 -29 -49 -3
-68 15 -12 15 -13 0 -19 -9 -3 -22 -2 -30 4 -9 8 -24 8 -54 0 l-42 -11 6 -43
c7 -45 -8 -96 -29 -96 -26 0 -50 150 -25 165 15 9 0 35 -32 51 -22 11 -44 13
-86 8 -31 -4 -52 -9 -46 -11 13 -4 -2 -83 -15 -83 -4 0 -14 15 -23 33 l-16 32
-11 -42 c-15 -55 -43 -71 -71 -43 -12 12 -20 33 -20 54 0 24 -5 36 -18 40 -9
3 -23 19 -30 36 -16 35 -37 38 -60 11 -24 -28 -53 -29 -90 -3 -17 13 -32 20
-32 16 0 -3 -6 -1 -14 5 -9 7 -13 32 -12 77 1 60 -1 67 -22 77 -16 7 -21 15
-16 26 4 9 8 31 8 49 1 20 9 39 19 47 14 10 16 18 9 32 -5 10 -6 27 -2 38 4
11 4 32 -1 48 -4 15 -4 27 1 27 4 0 10 19 12 42 4 43 -5 59 -47 84 -23 13 -13
69 10 60 10 -3 15 1 15 14 0 22 -16 35 -25 20 -10 -16 -33 -12 -37 7 -2 10 7
28 21 40 l24 23 -24 23 c-26 25 -86 53 -95 44 -3 -3 2 -17 12 -32 16 -24 16
-28 2 -36 -25 -14 -42 -64 -29 -87 16 -29 14 -53 -6 -67 -15 -12 -15 -16 0
-71 9 -33 21 -60 27 -62 13 -5 13 -42 1 -42 -6 0 -24 15 -41 33 l-30 32 2 -37
c2 -21 6 -38 9 -38 10 0 28 -80 22 -96 -6 -17 -18 -18 -44 -4 -32 18 -32 -10
1 -73 35 -67 35 -67 16 -67 -7 0 -16 9 -19 19 -3 12 -15 21 -33 23 -24 2 -29
7 -27 28 1 14 -3 58 -9 98 -8 56 -8 79 2 100 7 15 14 46 17 70 4 35 -1 51 -26
92 -17 28 -31 55 -31 61 0 6 -8 9 -17 7 -14 -3 -18 -13 -17 -43 1 -22 -3 -43
-8 -46 -6 -4 -12 -19 -13 -34 -2 -15 -11 -35 -20 -45 -13 -14 -14 -23 -6 -39
18 -34 13 -71 -11 -80 l-22 -8 22 -5 c26 -7 29 -40 6 -59 -13 -11 -17 -10 -25
3 -9 16 -19 27 -54 56 -9 8 -23 11 -30 8 -12 -4 -13 -10 -4 -30 8 -16 17 -22
27 -19 21 9 45 -26 31 -44 -6 -7 -17 -13 -24 -13 -14 0 -55 71 -55 94 0 8 -10
16 -21 19 l-21 6 22 31 c19 27 22 40 17 88 -5 49 -2 63 19 97 13 22 24 48 24
57 0 9 7 21 17 26 14 9 14 10 -4 16 -25 8 -36 42 -22 67 5 10 9 54 9 99 0 85
10 120 35 120 17 0 20 26 5 35 -5 3 -10 -1 -10 -9 0 -8 -9 -18 -20 -21 -11 -3
-20 -11 -20 -16 0 -10 -74 -6 -102 6 -15 6 -18 2 -18 -19 0 -32 -36 -66 -69
-66 -25 -1 -25 -1 -7 -15 10 -8 22 -12 27 -10 17 11 19 -16 4 -52 -15 -35 -15
-41 1 -75 15 -33 15 -40 3 -56 -26 -32 -40 -63 -33 -74 4 -6 8 -29 10 -52 2
-22 11 -55 19 -72 14 -30 14 -35 -6 -68 -19 -32 -19 -37 -5 -42 9 -3 16 -10
16 -14 0 -6 -13 -8 -90 -9 -34 -1 -80 21 -80 39 0 13 1 13 10 0 8 -12 10 -13
10 -1 0 8 7 22 15 31 13 14 14 29 6 85 -8 54 -7 75 5 103 10 24 11 39 4 47
-14 17 -1 105 20 136 15 22 16 28 4 44 -20 27 -17 53 8 66 19 10 19 12 5 21
-23 13 -21 46 4 67 l21 17 -43 42 c-27 25 -50 40 -59 36 -12 -4 -13 -3 -2 7
16 17 15 39 -2 39 -27 0 -35 60 -11 80 14 12 14 15 0 30 -22 24 -18 80 12 173
20 62 26 100 25 157 -1 41 4 100 11 130 9 37 10 65 4 83 -11 34 6 143 26 166
8 9 27 43 43 75 23 50 29 76 32 154 3 60 0 108 -8 133 -12 36 -11 43 19 107
17 38 38 93 47 123 9 30 22 65 29 79 32 61 54 224 55 397 2 163 0 168 -85 257
-35 37 -54 65 -50 75 2 9 5 48 6 86 1 80 6 108 20 100 5 -4 9 1 9 10 0 9 -5
13 -10 10 -11 -7 -14 8 -4 18 10 10 13 86 3 93 -5 3 -9 21 -9 40 0 21 -11 51
-27 76 -16 22 -31 46 -34 52 -40 74 -64 126 -79 169 -13 36 -24 51 -34 49 -11
-2 -16 5 -16 19 0 18 -2 19 -15 9 -13 -11 -15 -8 -15 14 0 14 -6 26 -12 26
-10 0 -9 3 1 9 9 6 10 11 2 15 -19 12 -12 36 10 36 18 0 21 -5 17 -30 -4 -23
-1 -29 9 -25 7 3 21 8 31 11 14 5 15 4 2 -5 -12 -8 -13 -14 -3 -28 7 -10 20
-33 29 -51 21 -42 34 -49 34 -20 0 18 2 20 10 8 5 -8 10 -27 10 -42 0 -16 4
-28 8 -28 5 0 14 -11 20 -25 6 -14 15 -25 20 -25 24 0 43 102 22 115 -5 3 -10
27 -10 52 0 48 -33 133 -52 133 -6 0 -8 10 -4 24 4 15 -1 31 -14 46 -11 13
-20 33 -20 46 0 35 -10 53 -26 47 -11 -4 -13 2 -7 28 6 31 5 33 -11 20 -20
-17 -34 -7 -17 13 9 11 8 14 -5 12 -13 -1 -20 14 -30 61 -7 34 -17 70 -23 81
-8 15 -7 23 3 31 15 13 39 -9 51 -47 3 -12 11 -20 16 -17 5 4 9 1 9 -6 0 -7
10 -9 25 -7 22 5 25 2 25 -23 0 -15 4 -30 9 -33 4 -3 11 -19 15 -36 3 -17 10
-29 16 -25 6 3 6 15 0 30 -5 13 -5 25 -1 27 8 3 -8 114 -21 148 -17 46 -38
125 -38 146 0 12 -4 26 -10 29 -5 3 -9 16 -8 28 0 12 -4 35 -11 50 -6 16 -11
45 -11 65 0 21 -5 53 -10 72 -6 19 -13 53 -16 75 -7 46 -12 78 -13 85 -1 3 -5
-2 -11 -10 -12 -20 -18 -12 -35 51 -18 63 -22 107 -12 133 4 10 2 25 -4 32 -6
8 -8 14 -4 14 4 0 3 6 -3 13 -5 6 -13 36 -17 65 -4 28 -13 56 -21 60 -12 7
-23 57 -27 132 -2 27 -21 45 -37 35 -6 -3 -10 -1 -10 5 0 6 6 13 14 16 8 3 17
12 20 20 6 17 -10 99 -25 127 -6 11 -6 17 1 17 19 0 10 28 -14 48 -17 13 -26
31 -29 63 -2 24 -7 51 -10 59 -36 96 -47 143 -54 226 -4 53 -8 63 -29 73 -14
6 -33 11 -42 11 -16 1 -16 2 0 14 26 19 22 29 -9 21 -23 -5 -26 -4 -15 6 21
22 14 32 -18 25 -25 -5 -30 -2 -30 14 0 12 7 20 16 20 13 0 15 7 11 33 -3 19
-1 40 3 48 6 9 3 20 -7 31 -10 12 -12 18 -4 18 8 0 9 5 2 19 -7 12 -7 28 1 49
14 36 9 43 -26 46 -20 1 -24 5 -20 19 5 17 4 17 -32 2 -21 -9 -38 -17 -38 -18
-1 -1 -7 -12 -13 -24 -7 -13 -13 -39 -13 -59 0 -30 -3 -35 -17 -30 -15 5 -15
4 1 -9 11 -8 18 -16 15 -17 -2 -2 -13 -8 -24 -14 -11 -6 -21 -20 -23 -32 -2
-11 -10 -26 -18 -32 -8 -7 -14 -22 -14 -34 0 -11 -7 -34 -15 -49 -8 -15 -17
-43 -21 -62 -3 -19 -12 -39 -20 -46 -8 -6 -14 -17 -14 -24 0 -8 -6 -15 -12
-18 -9 -3 -7 -10 7 -26 18 -21 18 -23 2 -32 -9 -6 -17 -17 -17 -25 0 -9 -6
-14 -12 -12 -24 8 -19 105 12 272 17 92 29 174 27 184 -3 12 -5 11 -6 -6 0
-12 -8 -25 -16 -28 -10 -4 -13 -16 -9 -37 2 -18 2 -26 -2 -19 -8 17 -27 15
-20 -3 4 -10 -1 -15 -15 -15 -16 0 -19 4 -14 21 5 13 3 19 -3 15 -5 -3 -31 -7
-56 -8 -35 -1 -50 3 -60 18 -8 10 -12 22 -10 26 3 5 0 8 -5 8 -6 0 -11 7 -11
15 0 8 -4 15 -10 15 -5 0 -7 6 -4 14 3 7 -2 16 -11 20 -9 3 -13 10 -10 16 3 5
2 10 -3 10 -5 0 -17 26 -27 58 -10 31 -26 75 -35 97 -17 38 -32 101 -60 255
-6 36 -17 71 -23 79 -6 7 -13 25 -15 39 -4 35 -47 108 -61 104 -16 -3 -44 25
-37 37 3 5 -8 14 -24 21 -32 13 -43 45 -12 36 9 -3 35 -8 57 -12 22 -4 57 -13
78 -20 24 -9 45 -10 60 -4 12 5 17 9 10 9 -7 1 -12 19 -12 49 0 78 -11 471
-20 741 -5 163 -12 256 -19 260 -26 16 -44 87 -45 177 -1 51 -6 92 -11 91 -12
-2 -23 43 -25 96 0 20 -5 37 -10 37 -6 0 -10 35 -9 78 0 93 -12 181 -22 161
-4 -8 -12 -61 -18 -119 -6 -58 -14 -130 -17 -160 -3 -30 -10 -109 -15 -175 -4
-66 -20 -228 -34 -360 -15 -132 -31 -319 -37 -415 -5 -96 -15 -213 -21 -260
-6 -47 -11 -95 -12 -107 -1 -27 -19 -29 -72 -7 -79 33 -91 38 -164 63 l-75 26
2 40 c5 134 2 339 -7 390 -5 33 -10 129 -10 213 0 128 -2 152 -15 152 -11 0
-15 12 -15 49 0 42 -5 54 -31 80 -17 17 -35 31 -40 31 -5 0 -9 17 -9 38 0 21
-4 63 -10 93 -9 47 -26 394 -35 684 -9 297 -27 698 -34 755 -8 62 -8 63 -10
20 -5 -81 -10 -124 -20 -170 -5 -25 -13 -135 -16 -245 -3 -110 -11 -249 -16
-310 -15 -165 -26 -369 -44 -800 -8 -214 -20 -405 -25 -425 -5 -19 -10 -75
-10 -125 0 -80 -22 -251 -34 -262 -12 -13 -51 15 -134 98 -101 99 -128 139
-109 158 6 6 21 11 33 11 22 0 54 48 50 76 -3 20 -83 102 -106 109 -11 3 -20
10 -20 14 0 4 -23 31 -51 61 -47 47 -51 55 -39 73 10 17 9 23 -8 36 -20 17
-35 78 -20 87 4 3 8 10 8 15 0 6 -5 7 -12 3 -6 -4 -8 -3 -5 2 7 12 31 180 30
212 -1 12 3 22 7 22 4 0 10 9 13 20 4 18 11 20 44 15 21 -4 49 -2 63 4 22 8
22 10 5 11 -15 1 -12 5 15 20 38 21 65 27 40 9 -12 -9 -12 -10 3 -5 10 3 21 6
23 6 2 0 4 6 4 13 0 6 11 23 25 35 33 31 42 72 54 226 7 103 6 141 -5 183 -16
61 -38 108 -56 120 -7 4 -18 17 -24 28 -12 23 -80 33 -97 16 -25 -25 -30 -9
-22 82 4 50 9 128 10 173 2 45 9 110 15 145 14 76 14 273 0 299 -6 10 -10 36
-10 57 0 32 -10 49 -62 108 -34 39 -76 81 -93 95 -18 14 -37 36 -43 50 -13 29
-138 160 -153 160 -5 0 -32 16 -59 35 -27 19 -56 35 -65 35 -8 0 -24 13 -36
30 -12 16 -35 32 -50 35 -16 4 -52 18 -81 32 -28 14 -67 25 -85 25 -18 0 -36
4 -39 9 -3 6 -14 7 -24 4 -11 -3 -40 5 -67 19 -27 13 -71 27 -98 31 -28 4 -60
11 -72 16 -26 9 -51 -13 -37 -34 5 -7 2 -5 -8 5 -23 25 -93 25 -170 -1 -20 -7
-70 -14 -110 -16 -40 -2 -77 -4 -82 -4 -5 -1 -3 -7 3 -15 8 -10 9 -16 1 -21
-5 -3 -10 -2 -10 3 0 37 -102 -3 -144 -56 -35 -44 -60 -62 -100 -73 -52 -14
-112 -59 -94 -70 10 -7 9 -9 -4 -9 -9 0 -19 6 -22 13 -7 16 -44 -27 -53 -62
-3 -14 -28 -52 -56 -83 -27 -31 -69 -92 -95 -135 l-46 -78 0 -110 c0 -60 5
-137 11 -170 36 -184 46 -268 30 -258 -6 4 -8 0 -4 -10 5 -13 2 -15 -16 -7
-36 15 -345 45 -524 51 -68 3 -86 0 -100 -14 -14 -14 -15 -22 -6 -49 8 -23 10
-86 7 -198 -6 -190 -6 -171 -3 -278 1 -45 6 -85 12 -89 5 -3 39 -7 76 -8 36
-2 147 -9 246 -15 99 -7 199 -13 222 -14 l42 -2 0 72 c0 80 22 157 54 192 17
18 29 22 51 18 65 -13 97 -71 95 -173 l-1 -68 -10 45 c-18 89 -39 116 -91 118
-52 2 -71 -29 -71 -118 0 -53 4 -72 21 -94 l21 -27 7 33 c4 18 12 41 17 51 8
15 11 16 23 3 19 -19 19 -37 0 -62 -20 -26 -19 -48 5 -95 38 -73 86 -106 69
-47 -19 67 -2 185 21 148 4 -7 6 86 4 206 -3 142 0 228 7 245 7 19 7 38 0 63
-7 28 -6 51 5 92 16 62 18 115 6 130 -5 5 -14 39 -21 76 -15 87 -2 145 49 219
28 42 35 60 27 68 -18 18 6 33 60 36 26 2 49 4 51 5 1 2 6 3 12 4 5 0 15 7 22
15 11 12 11 13 -1 6 -11 -6 -13 -4 -8 7 4 12 1 14 -13 11 -10 -3 -21 0 -24 5
-7 12 29 26 44 17 5 -3 10 -1 10 4 0 6 8 11 18 11 15 -1 15 -2 -2 -15 -11 -8
-17 -17 -14 -20 8 -9 58 6 58 17 0 5 8 8 18 6 9 -1 23 1 29 5 9 5 11 3 7 -6
-4 -11 2 -13 23 -10 26 4 26 3 11 -10 -23 -18 -23 -31 0 -22 9 4 41 14 70 22
48 13 56 12 79 -2 18 -12 28 -14 38 -5 14 12 61 -1 235 -62 47 -16 92 -30 101
-31 8 -1 15 -10 15 -21 -1 -12 7 -22 18 -24 15 -3 18 0 13 17 -6 24 -8 23 53
27 25 1 58 -4 74 -12 33 -16 31 -17 41 14 5 19 3 23 -12 20 -11 -2 -17 2 -15
11 3 12 0 12 -11 2 -8 -6 -30 -11 -48 -10 -19 1 -44 -1 -56 -5 -28 -9 -44 0
-37 19 4 8 10 13 14 10 5 -3 11 -1 15 5 3 5 0 10 -9 10 -8 0 -16 4 -18 10 -1
5 -22 11 -45 12 -28 2 -43 8 -43 17 0 10 9 11 38 6 20 -5 62 -9 92 -10 60 -1
136 -20 145 -35 10 -17 35 -12 28 6 -3 10 12 3 40 -18 46 -33 60 -58 32 -58
-8 0 -15 -4 -15 -10 0 -5 -4 -10 -10 -10 -5 0 -10 14 -10 30 0 17 -4 30 -8 30
-5 0 -7 -15 -5 -32 4 -30 3 -31 -10 -15 -8 9 -17 17 -21 17 -12 0 -6 -34 10
-52 14 -14 14 -21 4 -32 -10 -14 -14 -14 -35 0 -12 8 -30 12 -39 8 -9 -3 -16
-2 -17 2 -3 40 -19 72 -19 39 0 -15 -6 -17 -42 -11 -40 7 -41 6 -25 -12 25
-27 21 -34 -13 -27 -35 8 -38 -3 -9 -33 21 -23 18 -42 -7 -42 -8 0 -14 -4 -14
-10 0 -5 -9 -10 -20 -10 -12 0 -20 -7 -20 -16 0 -12 -3 -14 -13 -6 -13 11 -42
11 -53 -1 -4 -4 1 -9 10 -13 9 -3 16 -10 16 -14 0 -4 -17 1 -37 11 -20 10 -38
17 -41 15 -8 -8 33 -46 50 -46 9 0 42 -7 73 -15 30 -8 80 -22 111 -30 31 -9
68 -24 81 -35 14 -11 33 -20 43 -20 10 0 29 -9 43 -20 14 -11 28 -20 32 -20 8
0 35 -26 35 -34 0 -3 -8 -6 -17 -7 -15 0 -15 -2 2 -8 12 -5 23 -4 27 3 6 8 8
8 8 0 0 -18 -80 -57 -94 -46 -6 5 -24 12 -41 16 -29 6 -29 6 -10 -9 19 -15 17
-16 -28 -11 -37 4 -49 2 -53 -9 -4 -8 -15 -15 -26 -15 -12 0 -17 4 -12 12 9
14 -74 2 -93 -14 -7 -6 -22 -8 -33 -5 -11 3 -20 2 -20 -1 0 -11 -90 -6 -153 7
-31 7 -67 11 -80 10 -12 -2 -28 0 -34 4 -7 5 -13 4 -13 -2 0 -5 -23 -14 -52
-20 -28 -7 -58 -17 -66 -24 -12 -9 -16 -9 -19 0 -5 15 -83 -13 -96 -34 -4 -7
-13 -13 -20 -13 -32 0 -90 -23 -113 -45 -15 -14 -33 -25 -40 -25 -26 0 -42
-113 -20 -148 4 -7 4 -17 1 -23 -7 -10 21 -49 36 -49 5 0 43 -21 86 -47 81
-50 253 -123 286 -123 55 0 131 108 177 252 35 110 73 140 128 102 35 -24 107
-191 74 -170 -18 11 -25 -75 -9 -107 11 -22 12 -36 4 -62 -11 -36 5 -95 26
-95 6 0 2 -7 -9 -15 -10 -8 -14 -15 -7 -15 6 0 19 -3 27 -6 11 -4 15 -2 11 7
-3 8 10 24 31 39 l36 24 24 -27 c27 -32 30 -47 10 -47 -7 0 -16 -9 -19 -20 -7
-25 -66 -28 -102 -4 -14 9 -25 12 -25 6 0 -6 6 -12 13 -15 6 -2 0 -6 -15 -9
-21 -4 -29 -1 -34 15 -4 12 -1 23 7 28 10 6 4 9 -17 9 -17 0 -48 -11 -68 -25
-21 -14 -51 -25 -69 -25 -18 0 -37 -4 -42 -9 -6 -5 -29 -11 -52 -15 -39 -6
-43 -4 -48 17 -5 20 5 60 30 120 11 26 -8 20 -40 -13 -16 -16 -35 -30 -42 -30
-15 0 -16 -1 -74 -50 -20 -16 -41 -30 -47 -30 -5 0 -12 -7 -16 -15 -3 -8 -10
-15 -16 -15 -13 0 -71 -61 -65 -69 4 -7 -33 -28 -93 -53 -18 -7 -30 -18 -28
-25 3 -7 -1 -10 -7 -7 -14 5 -14 -66 -1 -88 5 -8 2 -9 -10 -5 -10 4 -28 7 -40
7 -16 0 -25 9 -35 38 -24 70 -65 177 -71 187 -6 9 -29 83 -44 140 -3 11 -3 -9
-1 -45 2 -36 10 -88 18 -117 9 -33 10 -51 3 -50 -15 3 -19 -29 -4 -44 7 -8 18
-25 24 -39 10 -22 8 -26 -23 -42 -19 -10 -38 -16 -43 -13 -4 3 -10 -1 -13 -7
-3 -10 -17 -7 -50 11 -67 34 -80 53 -85 120 l-4 58 -317 6 c-174 4 -363 9
-421 11 -167 8 -654 8 -684 0 -16 -4 -28 -15 -31 -28 -21 -102 -23 -137 -16
-291 8 -173 8 -204 -4 -380 -8 -125 -13 -155 -29 -155 -17 0 -36 44 -36 83 0
18 -4 37 -9 42 -10 11 -27 124 -42 275 -6 52 -12 115 -15 140 -9 88 -54 668
-64 820 -5 85 -15 207 -22 270 -7 63 -12 160 -10 215 3 107 -8 150 -39 158
-28 7 -23 24 11 42 17 9 30 22 30 30 0 16 -30 35 -56 35 -9 0 -32 11 -50 25
-44 33 -57 32 -77 -10 -21 -43 -9 -82 28 -91 32 -8 33 -36 3 -81 -30 -44 -60
-44 -76 0 -17 48 -15 67 8 67 31 0 24 26 -11 40 -22 10 -27 15 -17 21 8 5 9 9
2 9 -6 0 -17 -7 -24 -15 -17 -21 -43 -19 -74 6 -25 20 -73 19 -61 -2 8 -12
-11 -11 -33 2 -13 8 -31 7 -70 -4 -51 -15 -53 -15 -72 5 -24 26 -25 41 -5 62
12 11 37 15 105 14 91 -1 117 6 90 22 -12 7 -12 12 -3 21 14 14 -3 55 -32 79
-9 8 -25 31 -36 52 -11 21 -26 38 -34 38 -8 0 -25 11 -37 25 -25 29 -38 31
-95 9 -40 -16 -44 -16 -87 4 -56 27 -76 54 -67 90 10 36 58 43 86 12 23 -25
47 -26 68 -2 18 20 23 52 8 52 -5 0 -11 9 -14 20 -3 13 -14 20 -30 20 -27 0
-57 28 -57 54 0 29 55 76 88 76 46 0 71 -49 50 -96 -9 -18 -8 -28 0 -36 7 -7
12 -22 12 -34 0 -13 10 -30 22 -39 13 -8 23 -21 23 -28 0 -13 7 -17 31 -17 9
0 14 6 11 13 -8 21 29 18 88 -8 65 -29 83 -55 60 -87 -22 -32 -19 -40 25 -70
41 -29 49 -52 30 -89 -6 -10 -18 -19 -26 -19 -9 0 -14 -7 -12 -17 4 -24 62
-29 94 -8 20 13 24 24 24 66 0 31 5 51 13 55 18 7 19 40 1 55 -12 10 -12 14
-2 20 10 7 10 9 -2 9 -16 0 -50 72 -50 105 1 32 26 58 49 50 11 -3 28 -2 37 3
16 9 15 10 -3 16 -23 7 -49 58 -39 75 11 17 77 25 98 12 21 -13 24 0 6 28 -9
14 -8 26 2 51 l13 32 20 -51 19 -52 -24 -20 c-19 -17 -23 -29 -21 -70 1 -27 9
-59 17 -71 l15 -21 11 27 c5 15 10 32 10 37 0 5 7 9 15 9 17 0 20 16 5 25 -6
4 -8 11 -4 16 3 6 12 2 21 -10 13 -19 16 -20 38 -5 21 14 24 14 33 -2 6 -11
11 -13 16 -5 4 6 -2 31 -14 56 -12 24 -22 58 -22 75 -1 16 -5 30 -10 30 -4 0
-8 14 -8 30 0 17 -4 30 -10 30 -14 0 -13 67 2 76 6 4 17 -1 24 -12 38 -54 43
-55 67 -8 23 46 24 156 1 175 -11 9 -14 22 -10 43 5 28 -11 96 -26 111 -3 4
-22 3 -42 0 -31 -6 -34 -10 -26 -25 6 -10 10 -28 10 -39 0 -12 14 -34 31 -49
27 -24 30 -33 25 -59 -11 -48 -46 -74 -102 -76 -40 -2 -49 1 -52 16 -6 30 19
77 49 93 30 15 37 42 17 62 -7 7 -8 12 -2 12 5 0 3 4 -3 8 -7 4 -16 23 -19 42
-6 29 -5 33 11 26 14 -5 16 -4 6 8 -13 16 -6 42 15 50 8 3 34 -1 57 -9 23 -8
52 -15 65 -15 25 0 30 18 7 26 -13 5 -31 41 -28 55 1 3 -16 23 -38 43 -32 31
-39 44 -39 76 0 21 -4 42 -10 45 -13 8 -50 93 -50 115 0 21 26 45 60 55 56 17
42 65 -19 65 -21 0 -44 6 -51 14 -8 11 -18 12 -36 6 -19 -8 -26 -6 -31 6 -7
20 4 31 19 16 15 -15 28 -16 28 -2 0 6 -7 10 -15 10 -20 0 -19 29 1 37 8 3 20
17 26 32 9 25 11 25 22 7 28 -47 44 -56 107 -56 l61 0 -7 63 c-7 62 -37 137
-55 137 -5 0 -17 14 -25 30 -15 28 -14 34 4 74 10 24 19 60 19 80 0 25 7 42
22 54 19 16 21 24 15 60 -5 32 -11 42 -26 42 -19 0 -21 -6 -33 -79 -16 -96
-74 -72 -92 38 l-7 41 -63 0 c-57 0 -64 -2 -64 -19 0 -31 -19 -35 -32 -7 -10
24 -16 26 -80 26 -43 0 -68 -4 -68 -11 0 -6 18 -49 41 -95 23 -46 39 -91 35
-99 -15 -40 -96 12 -96 62 0 28 -17 63 -30 63 -5 0 -12 -10 -15 -22 -4 -13
-18 -32 -31 -44 -22 -19 -22 -21 -6 -35 10 -8 24 -34 32 -58 13 -40 13 -44 -6
-58 -17 -12 -21 -12 -37 8 -9 12 -17 33 -17 48 -1 31 -20 59 -37 54 -8 -3 -13
4 -13 16 0 12 6 21 15 21 8 0 20 10 26 23 7 12 25 38 40 58 44 56 39 69 -25
69 -30 0 -58 -4 -61 -10 -3 -5 -15 -10 -26 -10 -10 0 -19 5 -19 10 0 6 -57 10
-150 10 l-150 0 0 -624z m115 560 c14 -15 16 -49 2 -58 -28 -17 -83 52 -60 75
8 9 43 -2 58 -17z m175 -76 c0 -5 -7 -7 -15 -4 -8 4 -12 10 -9 15 6 11 24 2
24 -11z m470 -85 c7 -9 8 -15 2 -15 -5 0 -12 7 -16 15 -3 8 -4 15 -2 15 2 0 9
-7 16 -15z m-152 -27 c32 -32 -9 -96 -44 -67 -26 22 -11 79 21 79 6 0 16 -5
23 -12z m-474 -89 c-8 -13 -21 -11 -27 5 -4 10 0 12 14 9 10 -3 16 -9 13 -14z
m116 -110 c0 -13 -22 -10 -44 6 -16 12 -17 17 -5 31 12 15 15 14 31 -6 10 -12
18 -26 18 -31z m334 25 c20 -19 20 -28 1 -44 -11 -10 -18 -9 -30 3 -16 16 -20
39 -8 50 10 11 20 8 37 -9z m384 -7 c2 -12 -1 -15 -12 -11 -19 7 -22 38 -3 32
6 -3 13 -12 15 -21z m-601 -67 c1 -11 -4 -20 -13 -20 -16 0 -16 2 -8 24 8 22
19 20 21 -4z m268 -85 c0 -10 -8 -23 -18 -29 -26 -16 -42 12 -20 37 20 21 38
17 38 -8z m152 -67 c-3 -8 -6 -5 -6 6 -1 11 2 17 5 13 3 -3 4 -12 1 -19z
m-361 -13 c-4 -14 -2 -25 4 -25 5 0 10 -4 10 -10 0 -20 -37 -10 -47 13 -13 29
-6 47 19 47 17 0 19 -4 14 -25z m351 -297 c13 -12 23 -16 23 -10 0 19 55 14
74 -7 22 -24 14 -83 -10 -74 -7 3 -17 -2 -20 -11 -14 -37 -64 -10 -64 35 0 23
-5 28 -27 31 -31 3 -44 35 -21 49 18 12 19 12 45 -13z m-558 -42 c10 -12 8
-19 -8 -35 -27 -27 -38 -26 -43 3 -8 40 27 61 51 32z m-5 -101 c10 -8 22 -13
25 -11 3 2 7 -10 8 -26 1 -17 7 -36 13 -43 13 -15 2 -71 -16 -86 -8 -6 -24 -9
-36 -6 -11 3 -30 2 -40 -4 -15 -8 -20 -5 -30 16 -9 19 -9 28 0 37 7 7 12 38
12 69 0 68 21 86 64 54z m504 -97 c20 -20 14 -35 -15 -41 -38 -7 -51 8 -28 33
21 23 27 24 43 8z m-178 -63 c0 -8 -4 -15 -10 -15 -5 0 -10 7 -10 15 0 8 5 15
10 15 6 0 10 -7 10 -15z m-80 -56 c0 -10 -7 -19 -15 -19 -15 0 -21 31 -9 43
11 10 24 -3 24 -24z m-192 -17 c2 -7 -3 -12 -12 -12 -9 0 -16 7 -16 16 0 17
22 14 28 -4z m385 -35 c-2 -23 5 -31 32 -44 77 -37 40 -117 -45 -98 -43 9 -52
32 -30 73 14 26 16 38 8 52 -15 23 -3 52 19 48 13 -3 17 -12 16 -31z m-383 3
c0 -5 -4 -10 -10 -10 -5 0 -10 5 -10 10 0 6 5 10 10 10 6 0 10 -4 10 -10z
m3217 -136 c-3 -3 -12 -4 -19 -1 -8 3 -5 6 6 6 11 1 17 -2 13 -5z m-212 -54
c3 -5 1 -10 -4 -10 -6 0 -11 5 -11 10 0 6 2 10 4 10 3 0 8 -4 11 -10z m645
-24 c0 -3 -4 -8 -10 -11 -5 -3 -10 -1 -10 4 0 6 5 11 10 11 6 0 10 -2 10 -4z
m-465 -46 c3 -5 -1 -10 -9 -10 -8 0 -18 5 -21 10 -3 6 1 10 9 10 8 0 18 -4 21
-10z m-2878 -61 c17 -34 7 -62 -26 -77 -42 -18 -101 8 -101 45 0 42 27 64 74
61 32 -3 43 -9 53 -29z m2693 1 c8 -5 11 -10 5 -10 -5 0 -17 5 -25 10 -8 5
-10 10 -5 10 6 0 17 -5 25 -10z m-2853 -77 c7 -20 -12 -20 -29 -1 -17 17 -17
18 4 15 12 -2 24 -9 25 -14z m2798 -13 c3 -5 1 -10 -4 -10 -6 0 -11 5 -11 10
0 6 2 10 4 10 3 0 8 -4 11 -10z m-174 -77 c13 -16 12 -17 -3 -4 -10 7 -18 15
-18 17 0 8 8 3 21 -13z m1032 -18 c-3 -9 -8 -14 -10 -11 -3 3 -2 9 2 15 9 16
15 13 8 -4z m-993 -5 c-13 -9 -13 -11 0 -20 8 -5 11 -10 5 -10 -5 0 -17 5 -25
10 -13 9 -13 11 0 20 8 5 20 10 25 10 6 0 3 -5 -5 -10z m188 -97 c-10 -2 -26
-2 -35 0 -10 3 -2 5 17 5 19 0 27 -2 18 -5z m82 -3 c0 -12 -8 -12 -35 0 -18 8
-17 9 8 9 15 1 27 -3 27 -9z m53 -7 c-7 -2 -21 -2 -30 0 -10 3 -4 5 12 5 17 0
24 -2 18 -5z m-126 -19 c-3 -3 -12 -4 -19 -1 -8 3 -5 6 6 6 11 1 17 -2 13 -5z
m-220 -21 c2 -6 -7 -8 -23 -5 -19 3 -25 1 -20 -7 10 -16 -5 -13 -29 5 -20 16
-20 16 3 9 13 -4 22 -2 22 4 0 14 43 8 47 -6z m98 -13 c-3 -5 -12 -7 -20 -3
-21 7 -19 13 6 13 11 0 18 -4 14 -10z m5 -24 c0 -3 -4 -8 -10 -11 -5 -3 -10
-1 -10 4 0 6 5 11 10 11 6 0 10 -2 10 -4z m740 -11 c8 -10 16 -12 20 -6 6 11
80 -44 80 -60 0 -17 -27 -9 -50 16 -12 13 -25 23 -29 22 -11 -3 -51 23 -51 33
0 15 16 12 30 -5z m-360 -5 c0 -5 -5 -10 -11 -10 -5 0 -7 5 -4 10 3 6 8 10 11
10 2 0 4 -4 4 -10z m40 -15 c0 -8 -2 -15 -4 -15 -2 0 -6 7 -10 15 -3 8 -1 15
4 15 6 0 10 -7 10 -15z m-670 -15 c0 -5 -7 -10 -16 -10 -8 0 -12 5 -9 10 3 6
10 10 16 10 5 0 9 -4 9 -10z m575 0 c3 -5 12 -7 20 -3 8 3 15 0 15 -6 0 -6 -6
-11 -14 -11 -22 0 -46 11 -46 21 0 12 17 12 25 -1z m85 -25 c5 3 24 -4 42 -15
l33 -20 -27 0 c-16 0 -28 4 -28 9 0 5 -11 12 -25 15 -16 4 -23 11 -19 18 6 9
9 9 12 0 2 -7 8 -10 12 -7z m400 -175 c13 -9 13 -10 0 -10 -11 -1 -9 -6 8 -19
27 -24 27 -27 0 -34 -22 -6 -58 16 -58 35 0 10 22 37 30 37 3 1 12 -4 20 -9z
m-315 -120 c3 -5 1 -10 -4 -10 -6 0 -11 5 -11 10 0 6 2 10 4 10 3 0 8 -4 11
-10z m75 -270 c0 -5 -5 -10 -11 -10 -5 0 -7 5 -4 10 3 6 8 10 11 10 2 0 4 -4
4 -10z m-1740 -35 c0 -8 -4 -15 -10 -15 -5 0 -10 7 -10 15 0 8 5 15 10 15 6 0
10 -7 10 -15z m2270 -99 c0 -11 38 -40 53 -41 25 -1 62 -85 37 -85 -5 0 -10 7
-10 15 0 8 -10 16 -22 17 -37 2 -42 3 -56 12 -7 4 -10 16 -7 25 3 10 -1 24
-10 31 -13 11 -16 11 -13 0 2 -7 -3 -15 -9 -17 -15 -6 -17 11 -4 36 11 19 41
24 41 7z m140 -108 c0 -19 -2 -20 -10 -8 -13 19 -13 30 0 30 6 0 10 -10 10
-22z m-113 -24 c-3 -3 -12 -4 -19 -1 -8 3 -5 6 6 6 11 1 17 -2 13 -5z m323
-35 c0 -6 7 -9 15 -5 12 4 13 2 2 -15 -10 -17 -13 -17 -15 -3 -3 13 -7 12 -28
-7 -32 -30 -33 -76 -1 -89 21 -8 21 -9 -5 -9 -21 -1 -28 -6 -28 -20 0 -11 -4
-23 -10 -26 -5 -3 -10 3 -10 15 0 12 -4 18 -10 15 -14 -9 -13 28 2 43 8 8 8
15 -2 27 -7 9 -8 15 -2 15 6 0 13 8 16 18 3 9 18 24 33 34 34 20 43 21 43 7z
m-172 -191 c-4 -9 -8 -37 -8 -62 0 -25 -4 -46 -10 -46 -5 0 -10 -11 -10 -25 0
-14 5 -25 10 -25 6 0 1 -9 -10 -20 -11 -11 -20 -28 -20 -37 0 -15 2 -16 10 -3
12 19 13 8 1 -22 -19 -47 -24 -63 -23 -70 1 -5 -5 -8 -13 -8 -8 0 -15 -4 -15
-10 0 -5 -7 -10 -15 -10 -15 0 -14 -18 0 -67 3 -7 -5 -7 -23 3 -29 15 -56 19
-33 5 20 -13 -2 -21 -34 -13 -25 7 -26 9 -12 24 19 19 10 33 -11 16 -11 -10
-17 -8 -28 7 -8 10 -14 29 -14 42 0 13 -4 23 -10 23 -5 0 -14 9 -20 20 -9 17
-6 26 20 53 16 17 30 39 30 48 0 11 8 15 24 14 17 -2 26 3 29 17 4 12 12 18
24 16 14 -2 18 3 18 23 -1 18 4 25 12 22 10 -4 13 4 11 28 -2 27 1 34 15 33 9
-1 17 2 17 7 0 5 11 9 25 9 17 0 25 6 26 18 1 16 2 16 6 0 2 -10 9 -18 14 -18
5 0 7 11 3 25 -3 14 -3 37 2 53 7 26 8 26 14 -13 3 -22 2 -48 -2 -57z m39 60
c-3 -8 -6 -5 -6 6 -1 11 2 17 5 13 3 -3 4 -12 1 -19z m163 2 c0 -5 -7 -10 -15
-10 -8 0 -15 5 -15 10 0 6 7 10 15 10 8 0 15 -4 15 -10z m87 -102 c-3 -7 -5
-2 -5 12 0 14 2 19 5 13 2 -7 2 -19 0 -25z m-163 -76 c-4 -26 -8 -56 -8 -66
-1 -11 -6 -21 -11 -23 -7 -2 -9 13 -7 38 3 23 0 44 -6 48 -21 13 -18 61 3 61
8 0 15 6 15 13 0 6 5 4 11 -6 7 -12 8 -36 3 -65z m-34 -43 c0 -5 -4 -9 -10 -9
-5 0 -10 7 -10 16 0 8 5 12 10 9 6 -3 10 -10 10 -16z m185 -8 c-3 -6 -11 -11
-16 -11 -5 0 -4 6 3 14 14 16 24 13 13 -3z m-145 -51 c0 -5 -5 -10 -11 -10 -5
0 -7 5 -4 10 3 6 8 10 11 10 2 0 4 -4 4 -10z m100 3 c0 -5 -5 -15 -10 -23 -8
-12 -10 -11 -10 8 0 12 5 22 10 22 6 0 10 -3 10 -7z m-911 -7 c-2 -2 -22 -6
-44 -9 -27 -4 -35 -3 -25 3 14 9 79 15 69 6z m26 -6 c3 -5 1 -10 -4 -10 -6 0
-11 5 -11 10 0 6 2 10 4 10 3 0 8 -4 11 -10z m739 -2 c11 -10 9 -21 -11 -60
-13 -26 -25 -48 -27 -48 -2 0 0 17 4 38 3 21 11 36 18 35 7 -2 12 4 12 12 0 8
-4 15 -10 15 -5 0 -10 5 -10 10 0 13 8 13 24 -2z m-874 -14 c0 -8 -4 -12 -10
-9 -5 3 -10 10 -10 16 0 5 5 9 10 9 6 0 10 -7 10 -16z m-250 -41 c0 -19 50
-165 61 -179 7 -8 -6 -17 -40 -28 -65 -21 -65 -21 -57 15 6 29 4 31 -19 25
-18 -5 -25 -2 -25 9 0 8 -4 15 -10 15 -5 0 -2 21 6 48 9 26 18 58 21 72 8 38
33 62 50 49 7 -6 13 -18 13 -26z m850 -141 c0 -5 -7 -9 -15 -9 -8 0 -12 4 -9
9 3 4 9 8 15 8 5 0 9 -4 9 -8z m-1487 -69 c-7 -2 -19 -2 -25 0 -7 3 -2 5 12 5
14 0 19 -2 13 -5z m177 -13 c0 -5 7 -10 15 -10 8 0 15 -7 15 -15 0 -8 -7 -15
-15 -15 -8 0 -15 5 -15 11 0 7 -8 18 -17 25 -17 13 -17 13 0 14 9 0 17 -4 17
-10z m821 -81 c14 -27 3 -38 -44 -46 -67 -10 -87 38 -23 56 47 14 54 13 67
-10z m39 -4 c0 -8 -4 -15 -10 -15 -5 0 -7 7 -4 15 4 8 8 15 10 15 2 0 4 -7 4
-15z m30 0 c0 -8 -4 -15 -10 -15 -5 0 -10 7 -10 15 0 8 5 15 10 15 6 0 10 -7
10 -15z m-200 -19 c0 -26 -16 -36 -60 -36 -56 0 -60 44 -5 53 62 9 65 8 65
-17z m-78 -102 c24 -5 58 -37 58 -55 0 -3 -32 -6 -71 -6 -78 0 -97 -10 -80
-41 15 -29 14 -42 -5 -42 -14 0 -16 -8 -11 -42 3 -23 13 -47 21 -54 9 -6 38
-32 66 -58 42 -39 48 -49 40 -69 -5 -12 -9 -16 -9 -9 -1 9 -8 11 -21 7 -11 -3
-20 -2 -20 3 0 13 -57 21 -69 9 -6 -6 -13 -1 -20 12 -7 13 -17 18 -29 15 -10
-4 -13 -3 -6 3 6 4 15 19 19 33 7 23 7 24 -10 10 -17 -14 -18 -13 -13 17 3 22
-1 35 -14 44 -10 8 -13 16 -8 19 6 4 11 42 11 86 1 43 5 87 11 97 18 35 59 40
160 21z m-633 -46 c1 -5 -3 -8 -9 -8 -5 0 -10 12 -9 28 0 24 1 25 9 7 5 -11 9
-23 9 -27z m-7 -54 c-8 -14 -9 -13 -9 10 0 18 3 24 9 18 7 -7 7 -16 0 -28z
m-5 -96 c-3 -8 -6 -5 -6 6 -1 11 2 17 5 13 3 -3 4 -12 1 -19z m1645 -334 c41
-77 52 -164 44 -339 -6 -143 -8 -152 -38 -205 -38 -68 -131 -202 -154 -221 -9
-7 -19 -21 -23 -29 -7 -19 -229 -223 -259 -239 -24 -13 -26 -11 -126 154 -37
61 -86 136 -109 167 -77 104 -90 123 -77 111 14 -13 43 -6 34 8 -3 6 5 7 21 3
24 -6 26 -4 21 14 -6 17 -2 23 17 27 14 4 29 17 36 31 6 13 17 24 26 24 8 0
15 4 15 9 0 21 122 121 147 121 13 0 113 77 155 118 20 21 53 53 73 72 49 47
113 145 127 195 13 48 13 50 4 95 -6 31 -4 29 16 -15 13 -28 35 -73 50 -101z
m-171 -856 c-4 -13 -9 -39 -9 -59 -2 -70 -51 -214 -66 -191 -3 5 6 53 19 108
14 54 25 108 25 119 0 21 17 45 32 45 4 0 4 -10 -1 -22z m126 -156 c-12 -145
-14 -159 -19 -168 -3 -5 -6 -45 -7 -89 -1 -44 -6 -105 -12 -135 -5 -30 -14
-143 -19 -250 -11 -228 -18 -303 -30 -348 -5 -18 -7 -48 -5 -67 2 -19 -1 -38
-6 -41 -5 -3 -7 -9 -4 -14 3 -4 -2 -10 -10 -14 -9 -3 -15 -19 -16 -43 0 -21
-4 -47 -9 -58 -7 -18 -8 -17 -15 9 l-8 29 -13 -24 c-13 -23 -13 -23 -14 13 0
20 5 40 11 44 11 6 8 49 -6 106 -5 18 -2 40 9 62 11 24 16 62 16 124 0 50 5
94 10 97 13 8 13 55 0 55 -6 0 -6 9 0 26 6 14 10 58 10 97 0 114 19 300 32
308 6 4 8 19 5 37 -4 19 -2 32 5 34 7 3 12 24 13 49 0 44 39 185 56 204 5 5 9
19 9 31 0 12 3 30 7 40 14 37 19 -15 10 -114z m-475 -51 c-18 -25 -32 -36 -35
-29 -4 13 53 82 61 74 2 -2 -10 -23 -26 -45z m2457 -218 c0 -5 -4 -17 -9 -28
-8 -18 -9 -17 -9 8 -1 15 4 27 9 27 6 0 10 -3 9 -7z m-369 -113 c0 -5 -5 -10
-11 -10 -5 0 -7 5 -4 10 3 6 8 10 11 10 2 0 4 -4 4 -10z m520 -350 c0 -5 -7
-10 -15 -10 -8 0 -15 5 -15 10 0 6 7 10 15 10 8 0 15 -4 15 -10z m-50 -14 c0
-11 -19 -15 -25 -6 -3 5 1 10 9 10 9 0 16 -2 16 -4z m-2425 -53 c-3 -27 -2
-70 3 -98 4 -27 4 -77 0 -110 -5 -35 -5 -68 1 -80 34 -74 41 -110 41 -225 0
-102 2 -120 16 -120 13 0 15 -13 12 -81 -2 -60 0 -83 10 -85 7 -1 8 0 2 3 -17
8 -13 83 5 83 11 0 15 -12 16 -42 1 -24 1 -49 0 -56 -1 -8 8 -12 26 -10 25 3
31 -3 54 -50 22 -46 27 -51 32 -32 8 32 38 11 58 -42 24 -62 27 -69 54 -113
14 -22 30 -51 37 -65 7 -14 23 -39 35 -56 13 -17 23 -34 23 -38 0 -4 11 -22
25 -40 14 -18 25 -36 25 -40 0 -4 17 -30 38 -59 51 -69 57 -97 33 -151 -10
-24 -22 -58 -26 -75 -3 -17 -11 -33 -16 -36 -5 -4 -9 -15 -9 -26 0 -11 -9 -39
-20 -61 -11 -23 -20 -48 -20 -56 0 -8 -6 -26 -14 -40 -7 -15 -30 -81 -51 -147
-21 -66 -42 -129 -46 -140 -8 -19 -35 -109 -60 -200 -6 -22 -17 -60 -24 -85
-25 -84 -43 -155 -55 -210 -6 -30 -16 -66 -21 -80 -5 -14 -11 -43 -15 -65 -3
-22 -10 -58 -15 -80 -4 -22 -9 -58 -10 -80 l-1 -40 -10 30 c-5 17 -12 198 -15
404 -6 391 2 595 38 985 10 115 19 235 19 265 l0 55 -38 -37 c-21 -20 -43 -37
-48 -37 -15 0 -33 38 -43 90 -8 40 -9 41 -10 13 -1 -18 -5 -33 -10 -33 -5 0
-9 41 -8 90 0 100 -12 138 -14 44 -1 -32 -4 -46 -6 -30 -4 23 -7 26 -15 15 -6
-10 -7 0 -2 31 8 49 8 61 -1 165 -4 39 -7 76 -7 83 -1 6 -5 12 -10 12 -4 0 -8
31 -8 69 0 41 -5 73 -11 77 -8 5 -10 41 -5 125 5 82 4 119 -3 119 -6 0 -11 18
-11 41 0 35 -3 40 -17 34 -15 -5 -16 -4 -5 6 15 16 16 43 1 33 -8 -4 -9 1 -4
17 4 13 12 26 16 27 5 2 9 18 9 35 0 18 6 52 14 77 7 25 14 49 14 53 0 18 42
117 49 117 2 0 1 -21 -2 -47z m-380 -860 c-265 -318 -310 -371 -313 -368 -7 7
409 506 416 500 2 -2 -45 -61 -103 -132z m2035 43 c0 -2 -7 -6 -15 -10 -8 -3
-15 -1 -15 4 0 6 7 10 15 10 8 0 15 -2 15 -4z m-46 -41 c-4 -8 -10 -12 -15 -9
-11 6 -2 24 11 24 5 0 7 -7 4 -15z m66 -95 c0 -39 -11 -50 -51 -50 -20 0 -24
16 -10 39 5 8 16 11 26 8 9 -4 14 -3 10 3 -9 14 4 51 16 45 5 -4 9 -23 9 -45z
m-2150 16 c0 -2 -8 -10 -17 -17 -16 -13 -17 -12 -4 4 13 16 21 21 21 13z
m3230 -87 c0 -5 -4 -9 -10 -9 -5 0 -10 7 -10 16 0 8 5 12 10 9 6 -3 10 -10 10
-16z m-1157 -24 c-3 -9 -8 -14 -10 -11 -3 3 -2 9 2 15 9 16 15 13 8 -4z m61
-63 c2 -4 1 -14 -5 -22 -7 -12 -9 -12 -9 -1 0 7 -6 11 -15 7 -8 -3 -15 -1 -15
3 0 16 36 26 44 13z m1 -52 c3 -5 1 -10 -4 -10 -6 0 -11 5 -11 10 0 6 2 10 4
10 3 0 8 -4 11 -10z m1055 -205 c0 -18 -4 -23 -15 -19 -8 4 -22 1 -31 -6 -11
-10 -18 -10 -27 -1 -8 8 -4 14 21 23 18 7 32 16 32 20 0 4 5 8 10 8 6 0 10
-11 10 -25z m-1043 -27 c-3 -8 -6 -5 -6 6 -1 11 2 17 5 13 3 -3 4 -12 1 -19z
m1080 -55 c-11 -24 -16 -27 -41 -17 -15 6 -22 44 -10 56 3 3 18 1 34 -5 25 -9
27 -13 17 -34z m-1047 -11 c0 -10 -62 -34 -69 -26 -3 2 5 7 17 11 12 3 22 9
22 14 0 5 7 9 15 9 8 0 15 -4 15 -8z m980 -18 c0 -8 -4 -12 -10 -9 -5 3 -10
10 -10 16 0 5 5 9 10 9 6 0 10 -7 10 -16z m-1028 -86 c-9 -9 -12 -7 -12 12 0
19 3 21 12 12 9 -9 9 -15 0 -24z m33 -38 c-3 -5 -12 -7 -20 -3 -21 7 -19 13 6
13 11 0 18 -4 14 -10z m62 -12 c-3 -8 -6 -5 -6 6 -1 11 2 17 5 13 3 -3 4 -12
1 -19z m-34 -23 c-6 -16 -43 -27 -43 -13 0 6 -7 8 -15 5 -14 -6 -29 6 -19 15
2 3 22 5 43 5 28 0 38 -4 34 -12z m997 -15 c0 -5 -7 -10 -15 -10 -8 0 -15 5
-15 10 0 6 7 10 15 10 8 0 15 -4 15 -10z m-953 -72 c-3 -8 -6 -5 -6 6 -1 11 2
17 5 13 3 -3 4 -12 1 -19z m-78 -91 c0 6 15 19 33 27 36 18 38 19 38 9 -1 -11
-41 -39 -67 -47 -22 -7 -23 -5 -22 36 l2 43 7 -40 c4 -22 8 -35 9 -28z m-944
15 c6 -10 25 -47 43 -83 l32 -64 -27 -22 c-16 -13 -22 -23 -15 -23 20 0 14
-21 -8 -27 -14 -4 -20 -14 -20 -34 0 -27 2 -28 33 -23 24 4 28 3 17 -5 -8 -6
-23 -11 -32 -11 -10 0 -18 -5 -18 -11 0 -7 10 -9 25 -5 14 4 25 2 25 -4 0 -5
10 -10 22 -10 33 0 9 -18 -29 -22 -23 -2 -30 -7 -25 -16 7 -10 17 -9 49 2 43
15 97 11 71 -5 -10 -7 -9 -9 4 -9 20 0 42 -35 34 -55 -2 -7 2 -19 10 -25 18
-16 18 -30 0 -30 -21 0 -25 -23 -7 -37 9 -6 16 -25 17 -42 1 -24 -2 -31 -17
-31 -11 0 -19 -7 -19 -16 0 -11 -6 -14 -20 -9 -25 8 -41 -1 -34 -20 4 -8 10
-12 15 -9 5 3 9 -6 9 -19 0 -15 -8 -28 -22 -35 -19 -9 -20 -11 -5 -11 10 -1
16 -5 12 -11 -3 -5 -12 -7 -19 -4 -7 3 -16 -1 -19 -9 -4 -10 3 -12 27 -9 28 4
29 3 13 -10 -10 -7 -19 -26 -21 -41 -1 -15 -8 -33 -15 -40 -7 -7 -12 -7 -11
-2 6 27 0 37 -14 26 -8 -6 -20 -10 -27 -9 -7 2 -14 -1 -14 -7 -1 -5 -5 -17 -8
-25 -13 -32 -3 -55 28 -60 30 -6 29 -6 -9 -11 -23 -3 -39 -1 -40 5 -2 6 -11
35 -20 64 -10 32 -19 98 -22 160 -2 59 -9 179 -15 267 -10 157 -7 255 11 345
5 25 12 57 15 73 6 31 26 36 40 9z m-1114 -54 c-27 -35 -59 -72 -72 -83 -12
-11 8 17 45 63 79 96 99 110 27 20z m2158 -23 c1 -30 4 -36 11 -25 5 8 10 11
10 5 -1 -15 -26 -45 -38 -45 -6 0 -12 -10 -14 -22 -3 -14 -6 -7 -9 20 -2 23
-1 42 3 42 5 0 8 -7 8 -16 0 -8 5 -12 10 -9 6 3 10 27 9 53 0 38 -2 43 -9 25
-5 -13 -15 -23 -21 -23 -7 0 -6 9 5 25 9 13 16 32 17 42 2 32 17 -29 18 -72z
m-89 26 c0 -5 -7 -11 -14 -14 -10 -4 -13 -1 -9 9 6 15 23 19 23 5z m1020 -33
c0 -16 -3 -19 -11 -11 -6 6 -8 16 -5 22 11 17 16 13 16 -11z m-1000 2 c0 -5
-7 -10 -16 -10 -8 0 -12 5 -9 10 3 6 10 10 16 10 5 0 9 -4 9 -10z m-40 -30 c0
-5 -4 -10 -9 -10 -6 0 -13 5 -16 10 -3 6 1 10 9 10 9 0 16 -4 16 -10z m46 -52
c3 -5 1 -15 -5 -21 -8 -8 -11 -8 -11 1 0 7 -7 12 -16 12 -10 0 -14 -5 -10 -16
3 -8 2 -12 -4 -9 -6 3 -10 0 -10 -7 0 -10 -3 -9 -10 2 -6 10 -4 19 8 30 19 19
49 23 58 8z m-39 -120 c0 -26 -2 -32 -4 -15 -2 15 -9 27 -14 27 -7 0 8 26 17
30 0 0 1 -19 1 -42z m43 12 c0 -17 5 -39 12 -50 12 -19 5 -40 -9 -27 -10 11
-21 107 -11 107 4 0 8 -14 8 -30z m-2292 -9 c-75 -92 -132 -157 -142 -160 -13
-5 -4 7 88 112 66 75 101 107 54 48z m2359 -63 c-3 -8 -6 -5 -6 6 -1 11 2 17
5 13 3 -3 4 -12 1 -19z m-96 -1 c-1 -4 -1 -14 -1 -22 0 -8 -4 -15 -10 -15 -5
0 -10 12 -10 26 0 14 5 24 11 22 6 -2 10 -7 10 -11z m96 -69 c-3 -7 -5 -2 -5
12 0 14 2 19 5 13 2 -7 2 -19 0 -25z m14 -108 c-6 -17 -10 -19 -10 -8 -1 9 -9
19 -18 21 -15 4 -15 6 5 12 16 5 22 16 24 39 1 30 1 30 5 -4 2 -20 0 -47 -6
-60z m-51 -11 c0 -5 -7 -9 -15 -9 -15 0 -20 12 -9 23 8 8 24 -1 24 -14z m-60
-9 c0 -5 -2 -10 -4 -10 -3 0 -8 5 -11 10 -3 6 -1 10 4 10 6 0 11 -4 11 -10z
m-1687 -57 c-3 -7 0 -13 6 -13 14 0 14 -22 0 -54 -17 -36 -29 -22 -29 33 0 34
4 48 14 48 8 0 12 -6 9 -14z m1794 -19 c-2 -3 -22 -7 -43 -10 -37 -5 -38 -5
-19 11 11 8 25 13 32 11 7 -3 16 0 20 6 5 9 8 9 11 -1 2 -7 2 -14 -1 -17z
m-887 -49 c0 -8 -7 -15 -15 -15 -8 0 -15 7 -15 15 0 8 7 15 15 15 8 0 15 -7
15 -15z m862 -40 c-7 -24 -9 -26 -15 -12 -4 10 -1 24 6 32 16 18 18 14 9 -20z
m217 -98 c36 -67 37 -75 14 -93 -31 -23 -40 -15 -47 39 -3 28 -9 70 -12 92 -8
50 3 41 45 -38z m-1049 -12 c0 -8 -4 -15 -10 -15 -5 0 -10 7 -10 15 0 8 5 15
10 15 6 0 10 -7 10 -15z m90 -8 c34 5 38 3 44 -21 3 -14 11 -26 16 -26 25 0
112 -88 124 -126 3 -11 22 -36 42 -57 28 -30 36 -47 40 -87 4 -46 -7 -68 -19
-37 -4 9 -8 9 -15 -2 -9 -13 -16 -13 -52 -1 -36 12 -40 16 -26 25 22 17 10 24
-30 18 -22 -4 -34 -2 -34 6 0 6 6 11 14 11 8 0 18 5 22 11 5 8 -1 10 -18 6
-25 -7 -51 10 -47 29 1 5 1 23 0 41 -1 24 -5 31 -16 27 -10 -4 -15 0 -15 11 0
9 5 13 10 10 6 -3 10 -1 10 4 0 6 -11 11 -25 11 -23 0 -25 4 -25 42 0 39 -1
40 -14 22 -9 -12 -11 -23 -5 -28 12 -13 12 -36 -1 -36 -5 0 -10 9 -10 20 0 11
-4 20 -10 20 -5 0 -10 9 -10 20 0 11 -4 20 -10 20 -5 0 -10 -10 -10 -22 0 -20
-3 -18 -16 10 -11 21 -24 32 -38 32 -18 0 -17 2 8 15 15 8 35 15 42 15 8 0 14
8 14 17 0 12 3 14 11 6 6 -6 28 -9 49 -6z m-210 -57 c0 -5 -2 -10 -4 -10 -3 0
-8 5 -11 10 -3 6 -1 10 4 10 6 0 11 -4 11 -10z m890 -40 c0 -5 -2 -10 -4 -10
-3 0 -8 5 -11 10 -3 6 -1 10 4 10 6 0 11 -4 11 -10z m-730 -30 c0 -5 0 -13 0
-17 0 -5 -9 -9 -20 -9 -22 -1 -22 -2 -14 20 7 17 34 22 34 6z m-56 -19 c7 -11
-14 -20 -31 -13 -7 2 -10 8 -7 13 7 12 31 12 38 0z m808 -13 c-7 -7 -12 -8
-12 -2 0 14 12 26 19 19 2 -3 -1 -11 -7 -17z m-902 -8 c0 -5 -10 -10 -22 -10
-19 0 -20 2 -8 10 19 13 30 13 30 0z m850 -5 c0 -9 -6 -12 -15 -9 -8 4 -12 10
-9 15 8 14 24 10 24 -6z m-906 -35 c-1 -22 2 -42 7 -45 12 -8 12 -25 -1 -25
-5 0 -13 18 -16 40 -4 22 -11 43 -15 46 -16 9 -10 24 10 24 15 0 18 -7 15 -40z
m936 -92 c0 -46 -12 -69 -33 -66 -31 5 -32 27 -2 38 20 8 25 15 20 30 -4 11
-2 20 4 20 6 0 11 -10 11 -22z m-1546 -51 c7 -6 6 -7 -4 -4 -8 2 -16 12 -17
23 -2 13 -1 15 4 4 3 -8 11 -19 17 -23z m26 -50 c0 -12 10 -58 21 -102 36
-138 56 -256 40 -239 -8 8 -44 147 -62 239 -4 22 -12 58 -18 79 -5 22 -7 44
-5 48 9 14 24 -2 24 -25z m1395 -8 c-10 -15 -25 -10 -19 6 4 8 10 12 15 9 5
-3 7 -10 4 -15z m108 -36 c-5 -106 -13 -146 -29 -164 -29 -32 -36 -21 -13 20
19 34 21 50 17 110 -5 65 -2 77 22 80 3 1 4 -20 3 -46z m-312 6 c16 -11 29
-25 29 -32 0 -6 8 -20 19 -31 24 -26 44 -153 26 -164 -13 -7 -25 -48 -29 -96
-2 -17 -8 -32 -14 -34 -21 -7 -13 -23 10 -20 11 2 23 -3 25 -9 3 -8 -5 -13
-21 -13 -30 0 -33 -15 -9 -42 9 -10 11 -18 6 -18 -15 0 -23 -36 -10 -49 7 -7
6 -15 -2 -25 -7 -8 -10 -19 -7 -25 3 -5 -1 -11 -9 -15 -8 -3 -15 -12 -15 -21
0 -24 81 -18 88 7 6 25 34 19 47 -9 5 -12 19 -24 30 -27 28 -7 105 -99 105
-125 0 -12 4 -21 9 -21 5 0 12 -12 15 -26 4 -14 20 -38 36 -54 16 -15 26 -31
22 -34 -3 -4 13 -4 37 0 42 7 43 6 36 -16 -5 -16 -4 -21 6 -18 16 6 54 -32 64
-62 3 -11 13 -20 21 -20 8 0 14 -3 13 -7 -3 -18 14 -52 27 -57 8 -3 14 -13 14
-22 0 -10 6 -14 14 -11 9 4 16 -3 20 -16 3 -12 26 -44 51 -71 25 -27 44 -55
41 -63 -3 -7 1 -13 8 -13 20 0 47 -61 34 -77 -30 -36 -93 10 -158 115 -44 71
-132 198 -150 216 -7 7 -10 5 -10 -7 0 -9 -7 -17 -15 -17 -9 0 -18 -7 -21 -15
-7 -17 -25 -3 -37 29 -5 14 -4 17 8 12 8 -3 15 -1 15 5 0 7 -13 9 -35 5 -25
-5 -40 -3 -50 8 -8 8 -11 17 -6 20 8 6 6 55 -5 89 -3 10 0 25 7 33 10 12 10
18 -2 29 -12 12 -20 12 -58 -1 -24 -8 -49 -13 -55 -11 -6 2 6 10 27 17 20 8
37 19 37 25 0 15 -43 12 -48 -3 -2 -7 -10 -12 -18 -12 -10 0 -12 8 -7 32 6 30
5 31 -25 25 -17 -4 -34 -2 -37 3 -6 9 8 14 28 11 4 0 7 3 7 9 0 5 -7 10 -15
10 -8 0 -15 5 -15 10 0 6 5 10 10 10 14 0 12 46 -2 57 -19 15 -58 23 -58 12 0
-5 -3 -8 -7 -8 -21 3 -33 -3 -33 -17 0 -11 -5 -14 -16 -10 -49 19 -63 18 -87
-8 -13 -14 -29 -26 -36 -26 -12 0 -16 -62 -4 -73 3 -4 12 -2 20 4 10 9 13 8
13 -1 0 -9 11 -11 38 -7 36 6 37 6 11 -8 -14 -8 -39 -17 -55 -20 -16 -3 -36
-8 -44 -10 -8 -2 -21 -4 -27 -4 -7 -1 -13 -4 -13 -9 0 -4 18 -6 40 -4 28 3 40
0 40 -9 0 -10 3 -10 12 -1 14 14 38 16 38 2 0 -5 -9 -18 -21 -29 -28 -26 -21
-55 15 -59 29 -4 81 -42 56 -42 -7 0 -18 7 -25 17 -7 9 -17 13 -23 9 -18 -11
-14 -26 6 -26 15 -1 15 -2 2 -13 -33 -26 1 -77 50 -77 22 0 29 -7 40 -39 7
-24 22 -43 37 -50 33 -15 51 -15 35 1 -7 7 -12 20 -12 29 0 10 -5 19 -12 21
-9 3 -9 6 -1 11 8 5 18 -10 29 -42 12 -32 22 -47 31 -44 11 4 11 0 3 -22 -5
-14 -10 -28 -10 -31 0 -7 48 1 56 9 13 13 22 7 17 -12 -3 -13 -11 -17 -24 -14
-10 3 -27 2 -36 -2 -25 -9 -28 -7 -25 15 2 14 -3 20 -15 21 -10 0 -28 2 -40 3
-13 2 -23 -1 -23 -5 0 -4 -13 -10 -30 -14 -45 -10 -36 -23 14 -23 27 1 44 6
43 12 -1 6 4 11 11 11 24 0 13 -20 -17 -30 -17 -5 -31 -16 -31 -25 -1 -12 -3
-12 -15 4 -9 11 -18 15 -27 10 -7 -5 -19 -9 -27 -11 -7 -1 -19 -7 -25 -14 -8
-9 -4 -10 19 -5 25 5 23 2 -13 -17 -43 -21 -44 -21 -58 -2 -14 18 -14 18 -14
-2 0 -15 -6 -21 -22 -21 -27 0 -108 -33 -108 -44 0 -5 7 -8 15 -8 29 0 -6 -37
-47 -49 -21 -7 -38 -18 -38 -25 0 -17 -34 -10 -50 9 -8 9 -6 17 5 29 9 9 12
16 6 16 -5 0 -22 5 -37 10 -26 10 -26 11 -8 25 10 8 15 14 9 15 -14 0 -28 -12
-41 -35 -14 -26 -81 -38 -89 -17 -3 8 4 22 15 32 18 16 18 19 5 30 -9 8 -13
20 -9 29 4 9 6 24 6 35 -1 10 8 20 19 23 16 5 18 8 7 15 -10 8 -10 9 2 5 9 -2
14 -13 12 -25 -2 -15 2 -22 12 -22 22 0 20 -27 -2 -34 -11 -4 -18 -15 -17 -26
2 -25 14 -38 23 -24 4 5 24 20 44 33 37 22 42 44 12 55 -19 7 -18 35 2 43 13
5 13 7 2 14 -21 14 -28 11 -28 -12 0 -19 -4 -17 -34 13 -19 18 -32 37 -29 42
3 4 9 2 14 -5 7 -11 9 -10 9 4 0 18 -34 24 -45 7 -3 -5 -19 -10 -35 -10 -20 0
-33 -7 -41 -21 -7 -15 -14 -18 -18 -10 -8 13 -71 4 -71 -10 0 -5 -18 -9 -39
-9 -33 0 -40 4 -45 25 -4 14 -13 25 -21 25 -8 0 -15 5 -15 11 0 7 -10 9 -25 7
-14 -3 -25 -1 -25 3 0 5 -10 9 -22 8 -13 0 -17 -3 -10 -6 21 -8 13 -21 -18
-25 -28 -4 -31 -2 -41 36 -18 72 -30 106 -40 111 -5 4 -9 -1 -9 -9 0 -9 -9
-21 -20 -28 -11 -7 -20 -19 -20 -26 0 -7 -8 -16 -17 -19 -10 -4 -26 -16 -36
-27 -28 -32 -37 -6 -36 108 0 106 6 120 52 131 20 5 27 15 32 47 9 49 2 57
-16 21 -21 -41 -39 -40 -39 2 0 19 -4 35 -10 35 -5 0 -10 -6 -10 -14 0 -7 -6
-19 -14 -25 -11 -9 -16 -5 -25 20 -6 18 -11 49 -11 69 0 34 3 38 51 60 49 24
50 25 44 60 -16 98 -9 90 -85 90 -68 0 -170 18 -180 31 -3 4 -3 32 -2 62 l4
55 46 -27 c85 -49 181 -95 187 -89 4 3 -2 36 -13 72 -11 36 -16 66 -12 66 5 0
13 -15 19 -32 12 -38 56 -226 66 -281 4 -20 11 -40 16 -43 5 -3 9 -22 9 -42 0
-54 12 -69 44 -54 14 6 26 18 26 27 0 21 17 19 24 -2 3 -10 4 14 2 54 -2 56 0
70 11 66 7 -3 13 0 13 6 0 6 7 11 15 11 8 0 15 5 15 10 0 6 -11 8 -25 4 -30
-7 -34 11 -6 26 31 16 37 13 56 -32 12 -30 19 -38 22 -25 5 21 23 23 23 2 0
-8 5 -15 10 -15 6 0 10 6 10 12 0 7 7 2 16 -10 8 -12 22 -22 30 -22 8 0 17 -7
20 -15 4 -8 15 -15 25 -15 10 0 19 -7 19 -15 0 -22 18 -18 25 5 3 11 15 24 24
30 15 8 18 18 14 53 -4 31 0 52 12 70 9 14 17 40 17 59 0 18 5 38 10 45 5 7 5
13 0 17 -10 6 -8 248 2 264 3 6 2 14 -4 17 -6 4 -8 16 -4 28 4 12 7 33 6 46
-3 32 7 44 24 30 8 -6 14 -8 14 -4 0 4 6 2 14 -4 10 -9 16 -9 21 -1 4 7 -2 14
-14 17 -12 3 -21 9 -21 13 0 5 -8 6 -19 3 -10 -3 -22 0 -25 6 -4 6 -1 11 7 11
8 0 17 8 20 19 4 15 11 17 43 12 28 -5 39 -11 38 -24 -1 -9 3 -14 8 -11 5 3
12 -2 14 -13 4 -16 15 -18 75 -17 51 0 69 -3 69 -13 0 -7 4 -13 10 -13 5 0 7
7 4 15 -4 8 -1 15 5 15 6 0 11 -7 11 -15 0 -8 5 -15 10 -15 6 0 10 9 10 19 0
11 5 32 11 48 10 26 12 27 19 8 5 -11 9 -14 9 -7 1 7 6 10 11 7 6 -4 8 -10 5
-14 -12 -21 46 5 80 35 45 40 57 41 96 13z m182 -63 c6 -16 -2 -28 -14 -20
-12 7 -11 34 0 34 5 0 11 -6 14 -14z m-63 -66 c0 -5 -2 -10 -4 -10 -3 0 -8 5
-11 10 -3 6 -1 10 4 10 6 0 11 -4 11 -10z m54 -15 c-4 -8 -8 -15 -10 -15 -2 0
-4 7 -4 15 0 8 4 15 10 15 5 0 7 -7 4 -15z m-48 -71 c-3 -9 -6 -30 -6 -47 0
-18 -4 -27 -9 -21 -11 12 -2 84 11 84 6 0 7 -7 4 -16z m140 -20 c-4 -9 -9 -15
-11 -12 -3 3 -3 13 1 22 4 9 9 15 11 12 3 -3 3 -13 -1 -22z m-102 -76 c3 -13
2 -26 -3 -31 -5 -5 -11 5 -13 22 -5 36 7 42 16 9z m43 -10 c-3 -8 -6 -5 -6 6
-1 11 2 17 5 13 3 -3 4 -12 1 -19z m-1597 -2 c0 -2 -8 -10 -17 -17 -16 -13
-17 -12 -4 4 13 16 21 21 21 13z m290 -22 c0 -8 -4 -14 -10 -14 -5 0 -10 9
-10 21 0 11 5 17 10 14 6 -3 10 -13 10 -21z m1230 -24 c0 -5 -2 -10 -4 -10 -3
0 -8 5 -11 10 -3 6 -1 10 4 10 6 0 11 -4 11 -10z m-1060 -170 c0 -5 -7 -10
-15 -10 -8 0 -15 5 -15 10 0 6 7 10 15 10 8 0 15 -4 15 -10z m-709 -117 c-60
-85 -81 -109 -81 -97 0 11 108 154 116 154 3 0 -13 -26 -35 -57z m709 -48 c0
-8 -7 -15 -16 -15 -14 0 -14 3 -4 15 7 8 14 15 16 15 2 0 4 -7 4 -15z m840 -9
c0 -2 -7 -9 -15 -16 -12 -10 -15 -10 -15 4 0 9 7 16 15 16 8 0 15 -2 15 -4z
m120 -16 c0 -5 -2 -10 -4 -10 -3 0 -8 5 -11 10 -3 6 -1 10 4 10 6 0 11 -4 11
-10z m-1000 -4 c0 -3 -4 -8 -10 -11 -5 -3 -10 -1 -10 4 0 6 5 11 10 11 6 0 10
-2 10 -4z m60 -16 c0 -5 -4 -10 -10 -10 -5 0 -10 5 -10 10 0 6 5 10 10 10 6 0
10 -4 10 -10z m1010 -50 c0 -5 -4 -10 -10 -10 -5 0 -10 5 -10 10 0 6 5 10 10
10 6 0 10 -4 10 -10z m-65 -10 c-3 -5 -10 -10 -16 -10 -5 0 -9 5 -9 10 0 6 7
10 16 10 8 0 12 -4 9 -10z m-51 -24 c-3 -8 -12 -12 -20 -9 -21 8 -17 23 6 23
13 0 18 -5 14 -14z m281 4 c-3 -5 -10 -10 -16 -10 -5 0 -9 5 -9 10 0 6 7 10
16 10 8 0 12 -4 9 -10z m-55 -37 c0 -26 -1 -26 -14 -7 -11 14 -11 21 -3 26 17
11 17 11 17 -19z m587 -85 c-3 -8 -6 -5 -6 6 -1 11 2 17 5 13 3 -3 4 -12 1
-19z m-727 -143 c0 -8 -2 -15 -4 -15 -2 0 -6 7 -10 15 -3 8 -1 15 4 15 6 0 10
-7 10 -15z m747 -27 c-3 -8 -6 -5 -6 6 -1 11 2 17 5 13 3 -3 4 -12 1 -19z
m-27 -73 c-6 -30 -8 -33 -9 -13 -1 25 8 62 14 56 2 -2 -1 -21 -5 -43z m-23 13
c-3 -8 -6 -5 -6 6 -1 11 2 17 5 13 3 -3 4 -12 1 -19z m-1577 -8 c0 -5 -8 -10
-17 -10 -15 0 -16 2 -3 10 19 12 20 12 20 0z m19 -44 c9 -11 8 -17 -8 -28 -20
-14 -20 -14 2 -38 19 -20 21 -29 13 -48 -7 -14 -17 -21 -28 -18 -10 2 -18 0
-18 -6 0 -5 -5 -6 -11 -2 -8 5 -8 1 0 -14 8 -15 20 -20 45 -18 27 1 32 -2 24
-11 -6 -7 -16 -13 -22 -13 -21 0 -39 -18 -31 -31 5 -7 9 -29 9 -48 1 -25 6
-36 16 -36 23 -1 40 -15 39 -33 0 -14 -2 -13 -8 3 -8 19 -8 19 -15 -3 -8 -23
4 -97 11 -74 3 6 9 9 15 6 5 -3 12 4 15 15 4 15 11 20 23 16 11 -4 20 1 25 12
6 17 7 17 21 -1 19 -27 18 -36 -6 -36 -12 0 -17 -5 -14 -14 3 -9 -7 -18 -28
-26 -18 -7 -36 -12 -40 -11 -5 0 -8 -6 -8 -16 0 -41 -11 -4 -94 320 -20 76
-36 142 -36 147 0 21 93 26 109 6z m81 -31 c-7 -9 -15 -13 -17 -11 -7 7 7 26
19 26 6 0 6 -6 -2 -15z m-40 -5 c-13 -8 -12 -11 5 -24 18 -14 18 -15 3 -16
-10 0 -18 5 -18 10 0 6 -7 10 -15 10 -34 0 -10 28 25 29 13 1 13 0 0 -9z m347
-26 c-3 -3 -12 -4 -19 -1 -8 3 -5 6 6 6 11 1 17 -2 13 -5z m-332 -34 c-3 -5
-12 -10 -18 -10 -7 0 -6 4 3 10 19 12 23 12 15 0z m705 -30 c0 -4 -19 -6 -41
-6 -29 1 -43 -4 -46 -14 -3 -9 -1 -11 4 -5 4 6 33 11 63 11 52 1 53 0 32 -14
-12 -8 -22 -20 -22 -26 0 -6 5 -4 10 4 8 13 10 13 10 -2 0 -9 -12 -21 -27 -26
-18 -7 -22 -11 -10 -11 9 -1 26 4 37 11 24 15 37 4 20 -17 -16 -19 -1 -19 49
-1 22 8 31 15 23 20 -7 4 -17 4 -22 1 -6 -3 -18 2 -28 11 -16 17 -16 18 1 11
10 -4 30 -7 43 -7 14 0 27 -7 31 -16 7 -18 -12 -34 -42 -34 -11 0 -33 -7 -49
-15 -16 -8 -36 -14 -45 -13 -8 2 -17 -5 -19 -14 -3 -15 -1 -16 25 -3 15 7 53
16 83 19 l55 6 -55 -21 c-30 -11 -66 -23 -79 -26 -33 -8 -72 -29 -66 -35 3 -3
-9 -5 -27 -5 -18 -1 -27 1 -20 4 6 3 12 11 12 19 0 8 7 14 15 14 8 0 15 4 15
9 0 5 -9 7 -20 4 -12 -3 -22 1 -26 11 -7 18 -44 22 -44 4 0 -6 -3 -8 -7 -4 -5
4 1 14 11 22 26 19 28 52 5 92 -18 31 -18 32 1 32 10 0 23 6 27 14 4 7 15 15
22 18 18 5 101 -13 101 -22z m85 0 c3 -5 -1 -10 -10 -10 -9 0 -13 5 -10 10 3
6 8 10 10 10 2 0 7 -4 10 -10z m-720 -20 c-3 -5 -16 -10 -28 -10 -18 0 -19 2
-7 10 20 13 43 13 35 0z m244 -82 c0 -13 -3 -17 -6 -10 -4 10 -8 10 -19 2 -13
-12 -34 -6 -34 10 0 7 10 11 53 19 4 0 7 -9 6 -21z m-6 -62 c12 3 38 14 57 23
39 18 70 17 70 -4 0 -23 -12 -45 -21 -39 -5 3 -7 10 -4 15 8 11 -29 12 -53 0
-9 -4 -42 -16 -72 -26 -72 -23 -84 -32 -65 -52 22 -21 19 -36 -5 -23 -11 6
-20 17 -20 25 0 18 -17 20 -22 3 -4 -12 -28 -3 -28 11 0 12 47 31 75 31 14 0
25 5 25 10 0 6 8 11 18 11 14 1 15 2 1 6 -14 3 -39 42 -39 59 0 2 14 -9 30
-26 23 -24 36 -30 53 -24z m47 44 c0 -5 -4 -10 -10 -10 -5 0 -10 5 -10 10 0 6
5 10 10 10 6 0 10 -4 10 -10z m-315 -80 c4 -6 -7 -10 -27 -10 -25 0 -29 3 -18
10 19 13 37 13 45 0z m735 -6 c0 -2 -7 -4 -15 -4 -8 0 -15 4 -15 10 0 5 7 7
15 4 8 -4 15 -8 15 -10z m-456 -26 c11 18 37 15 30 -3 -7 -18 17 -20 35 -2 8
6 11 7 8 1 -3 -6 -8 -23 -11 -38 -4 -24 -2 -26 17 -20 30 9 34 14 19 23 -15 9
-4 74 12 68 6 -2 10 -11 8 -21 -2 -9 2 -16 9 -16 8 0 8 -4 -1 -15 -10 -12 -9
-16 4 -21 24 -9 20 -18 -16 -32 -31 -11 -31 -12 -13 -27 11 -8 15 -15 8 -15
-7 0 -13 -7 -13 -16 0 -15 10 -14 56 3 7 3 14 -14 18 -41 7 -47 14 -54 33 -35
8 8 13 8 17 0 4 -6 0 -11 -8 -11 -10 0 -16 -9 -16 -25 0 -25 14 -33 25 -15 8
12 35 13 35 1 0 -5 -12 -12 -26 -15 -28 -8 -25 -18 6 -23 11 -2 20 2 20 8 0 5
5 7 10 4 6 -3 10 -18 10 -31 0 -16 5 -24 13 -21 7 2 11 16 9 33 l-3 29 17 -32
c16 -32 34 -44 34 -23 0 6 5 10 10 10 6 0 10 -9 10 -19 0 -11 5 -23 10 -26 6
-3 10 -1 10 6 0 10 3 10 11 2 9 -9 18 -9 36 0 17 8 26 8 31 0 4 -6 27 -13 52
-17 61 -8 72 -11 95 -22 11 -6 38 -16 60 -22 22 -6 76 -22 120 -35 142 -43
174 -48 255 -38 73 10 95 7 85 -9 -7 -11 43 -42 55 -35 14 9 12 -6 -3 -24 -9
-10 -11 -27 -7 -46 l7 -30 8 33 c10 44 26 36 30 -14 3 -37 1 -41 -19 -39 -16
2 -22 -3 -24 -18 -1 -15 1 -18 7 -9 6 10 10 9 14 -7 6 -24 0 -31 -26 -31 -17
0 -19 -5 -15 -50 7 -66 -6 -83 -65 -84 -26 -1 -42 -3 -37 -4 6 -2 8 -8 4 -13
-3 -5 4 -9 16 -9 12 0 19 -4 15 -10 -3 -5 -12 -7 -20 -3 -11 4 -15 -2 -15 -21
0 -14 -5 -26 -10 -26 -6 0 -10 8 -8 18 2 11 -4 18 -19 20 -13 2 -23 -1 -23 -7
0 -19 -20 -12 -20 7 -1 16 -1 16 -14 0 -7 -10 -18 -18 -24 -18 -6 0 -14 -5
-17 -10 -8 -13 14 -42 26 -34 5 3 9 0 9 -6 0 -7 -10 -14 -21 -17 -21 -6 -21
-6 2 -25 20 -17 21 -19 4 -13 -27 10 -63 17 -49 10 19 -10 4 -43 -22 -49 -14
-4 -29 -4 -33 -1 -5 2 -14 -2 -21 -10 -11 -13 -8 -15 16 -16 24 -1 25 -2 7 -6
-13 -2 -23 -11 -23 -19 0 -8 -9 -14 -19 -14 -20 0 -48 -11 -91 -35 -18 -11
-25 -23 -25 -46 0 -34 -33 -66 -42 -41 -7 18 -20 15 -26 -8 -3 -11 -13 -20
-23 -20 -20 0 -124 -69 -124 -82 0 -4 -5 -8 -11 -8 -8 0 -8 5 1 15 10 12 9 15
-7 15 -10 0 -24 -5 -30 -11 -8 -8 -18 -6 -37 6 -30 20 -33 32 -8 38 13 4 13 5
-4 6 -40 2 -115 -52 -106 -77 5 -15 -23 -43 -39 -40 -7 2 -14 -6 -16 -17 -3
-12 -1 -16 4 -9 11 16 73 28 73 15 0 -6 7 -11 15 -11 10 0 15 -11 15 -35 0
-27 -4 -35 -18 -35 -10 0 -28 -7 -40 -16 -16 -11 -26 -13 -36 -5 -9 7 -17 5
-29 -9 -32 -37 -16 -53 26 -26 34 22 90 31 85 15 -3 -8 -11 -15 -19 -15 -32
-3 -33 -5 -19 -14 13 -8 13 -10 -2 -10 -9 0 -20 -10 -24 -22 -3 -12 -13 -29
-21 -36 -9 -10 -11 -18 -5 -24 7 -7 27 0 57 18 44 25 49 26 60 11 7 -9 17 -17
23 -17 6 0 20 -14 32 -31 21 -28 20 -42 -1 -45 -5 -1 -13 -2 -19 -3 -5 0 -10
-6 -10 -12 0 -7 -14 -25 -31 -42 -19 -18 -27 -32 -21 -36 17 -11 -2 -31 -29
-31 -42 1 -74 -5 -81 -15 -5 -6 -8 -5 -8 3 0 6 -7 12 -15 12 -8 0 -15 -6 -15
-12 0 -9 -3 -9 -9 1 -6 10 -19 12 -41 8 -17 -4 -41 -2 -51 4 -15 7 -24 7 -35
-1 -7 -7 -20 -10 -28 -7 -8 3 -16 1 -19 -6 -2 -8 -7 -8 -18 1 -8 7 -22 18 -32
25 -18 12 -18 15 2 87 11 41 18 77 15 79 -2 2 -4 -2 -4 -10 0 -11 -2 -11 -10
1 -16 25 -11 31 19 27 22 -4 29 -1 25 9 -15 50 -14 49 -30 26 -19 -28 -34 -28
-34 -1 0 12 -5 39 -11 60 -10 33 -9 45 14 101 14 35 28 79 31 98 3 19 17 47
30 61 34 36 46 63 46 101 0 23 3 29 9 19 12 -19 41 -6 41 19 0 23 -4 24 -30
10 -12 -7 -21 -6 -28 3 -14 17 -25 58 -15 56 26 -4 34 3 31 28 -4 36 -22 39
-34 6 -9 -27 -11 -24 -46 57 -20 47 -40 99 -44 115 -4 17 -16 45 -26 63 -22
40 -22 43 -3 36 8 -4 15 -1 15 6 0 6 5 8 10 5 6 -3 10 1 10 9 0 9 6 16 14 16
7 0 19 7 26 15 10 12 9 16 -5 22 -12 4 -23 0 -31 -12 -10 -14 -14 -15 -14 -4
0 12 -2 12 -9 0 -5 -7 -14 -10 -20 -7 -6 4 -11 0 -11 -10 0 -24 -11 -10 -26
31 -10 29 -9 35 2 35 8 0 17 7 20 15 4 8 15 15 26 15 10 0 16 5 13 10 -10 16
-65 12 -72 -6 -4 -11 -10 -5 -19 21 -11 32 -10 40 2 52 8 8 14 25 14 39 0 24
-14 32 -25 14 -10 -17 -21 -11 -33 15 -16 34 -15 35 8 35 11 0 20 4 20 9 0 5
9 11 20 14 30 8 24 24 -11 31 -38 7 -49 1 -50 -27 -1 -17 -3 -16 -9 8 -5 17
-12 41 -16 54 -5 17 -4 22 4 17 14 -9 84 42 76 56 -3 5 -11 4 -19 -2 -16 -13
-39 -4 -30 11 4 5 1 9 -4 9 -6 0 -11 -5 -11 -11 0 -8 -6 -7 -17 2 -15 13 -16
11 -10 -16 l7 -30 -15 25 c-15 26 -21 75 -7 66 12 -7 39 17 39 36 0 17 -33 21
-53 6 -11 -8 -40 69 -30 80 3 3 6 0 6 -6 0 -17 19 -15 36 3 9 8 24 15 34 15
13 0 17 5 13 18 -4 16 0 18 26 14 20 -3 31 0 31 8 0 7 8 9 22 5 16 -6 20 -4
15 7 -8 22 8 42 24 32 8 -5 21 -7 31 -6 9 2 19 -2 23 -8 9 -15 25 -12 25 5 0
9 6 12 15 9 26 -10 16 12 -10 24 -32 15 -33 34 -1 26 17 -4 25 0 31 13 7 16 8
15 14 -7 5 -17 9 -21 15 -12z m23 26 c-3 -3 -12 -4 -19 -1 -8 3 -5 6 6 6 11 1
17 -2 13 -5z m204 -3 c-9 -6 -12 -19 -8 -40 5 -23 3 -31 -8 -31 -9 0 -13 9
-11 28 2 15 4 33 5 40 0 6 9 12 19 12 14 0 14 -2 3 -9z m186 -7 c-3 -3 -12 -4
-19 -1 -8 3 -5 6 6 6 11 1 17 -2 13 -5z m-93 -15 c4 6 19 11 33 11 15 0 23 -3
19 -7 -12 -12 -80 -33 -106 -32 l-25 1 28 11 c15 6 27 16 27 21 0 6 4 5 9 -3
6 -9 11 -10 15 -2z m-518 -26 c-10 -10 -19 5 -10 18 6 11 8 11 12 0 2 -7 1
-15 -2 -18z m384 -23 c0 -5 -4 -10 -10 -10 -5 0 -10 5 -10 10 0 6 5 10 10 10
6 0 10 -4 10 -10z m-1863 -26 c-3 -3 -12 -4 -19 -1 -8 3 -5 6 6 6 11 1 17 -2
13 -5z m1953 -123 c0 -5 -9 -11 -20 -14 -11 -3 -20 -1 -20 3 0 5 8 11 18 13 9
3 18 5 20 6 1 0 2 -3 2 -8z m30 -51 c0 -5 -2 -10 -4 -10 -3 0 -8 5 -11 10 -3
6 -1 10 4 10 6 0 11 -4 11 -10z m1000 -129 c0 -22 -16 -36 -24 -22 -8 12 3 41
15 41 5 0 9 -9 9 -19z m820 -173 c0 -18 -14 -38 -25 -38 -20 0 -26 16 -19 44
5 22 8 23 25 13 10 -6 19 -15 19 -19z m-398 -105 c-8 -24 -19 -13 -26 25 -10
62 -6 69 13 27 10 -22 16 -46 13 -52z m386 -11 c3 -9 -3 -13 -19 -10 -12 1
-24 9 -27 16 -3 9 3 13 19 10 12 -1 24 -9 27 -16z m-353 -47 c0 -13 -8 -21
-22 -23 -13 -2 -23 -8 -23 -13 0 -5 -4 -9 -10 -9 -5 0 -10 7 -10 15 0 8 7 15
16 15 12 0 15 6 11 21 -4 16 -1 20 16 17 14 -2 22 -10 22 -23z m-66 -91 c12
-19 21 -36 21 -38 0 -1 -16 0 -35 2 -34 4 -36 3 -29 -22 5 -21 3 -25 -9 -20
-10 3 -18 -2 -22 -16 -4 -12 -9 -19 -12 -16 -3 3 6 29 20 58 14 29 28 61 31
71 7 24 11 22 35 -19z m-489 -6 c0 -16 -3 -19 -11 -11 -6 6 -8 16 -5 22 11 17
16 13 16 -11z m107 -85 c21 -10 45 -24 53 -31 8 -6 26 -21 40 -31 39 -30 21
-31 -50 -2 -83 33 -90 38 -90 62 0 23 -1 23 47 2z m514 -27 c4 -32 -11 -55
-33 -56 -9 0 -11 64 -2 73 9 8 34 -3 35 -17z m-731 -6 c0 -5 -4 -10 -10 -10
-5 0 -10 5 -10 10 0 6 5 10 10 10 6 0 10 -4 10 -10z m-110 -46 c0 -8 -5 -12
-10 -9 -6 4 -8 11 -5 16 9 14 15 11 15 -7z m590 -4 c-12 -7 -11 -12 5 -29 20
-23 17 -35 -9 -25 -9 3 -16 16 -16 28 0 23 20 50 29 40 3 -3 -1 -9 -9 -14z
m135 -51 c-4 -5 -22 -9 -41 -9 -38 0 -43 13 -17 49 l16 24 24 -27 c13 -15 21
-32 18 -37z m-815 -49 c0 -5 -7 -10 -16 -10 -8 0 -12 5 -9 10 3 6 10 10 16 10
5 0 9 -4 9 -10z m820 -10 c0 -5 -4 -10 -10 -10 -5 0 -10 5 -10 10 0 6 5 10 10
10 6 0 10 -4 10 -10z m-170 -54 c0 -37 -10 -56 -31 -56 -23 0 -26 28 -4 36 8
4 15 15 15 25 0 10 5 19 10 19 6 0 10 -11 10 -24z m528 -31 c17 -14 35 -25 42
-25 25 0 3 -36 -32 -53 -21 -10 -38 -23 -38 -27 0 -5 11 -20 25 -34 17 -17 25
-36 25 -58 l-1 -33 -22 28 c-33 40 -48 18 -27 -39 10 -26 11 -26 30 -9 19 17
20 17 20 -3 0 -12 -6 -22 -14 -22 -8 0 -21 -7 -30 -15 -14 -14 -18 -13 -44 15
-18 18 -39 30 -56 30 -29 0 -35 20 -11 40 17 14 35 5 35 -18 1 -14 5 -12 21 7
22 26 19 49 -13 93 -20 29 -17 51 6 42 9 -3 15 7 19 33 4 22 2 39 -3 41 -6 2
-10 10 -10 18 0 23 46 16 78 -11z m-124 -3 c8 -14 -10 -33 -26 -27 -21 8 -18
35 3 35 10 0 20 -4 23 -8z m-215 -73 c15 -43 14 -59 -4 -59 -8 0 -15 6 -15 14
0 7 -3 28 -6 45 -8 41 11 41 25 0z m503 6 c0 -5 -5 -11 -11 -13 -6 -2 -11 4
-11 13 0 9 5 15 11 13 6 -2 11 -8 11 -13z m-369 -41 c-9 -15 -19 -22 -21 -16
-2 6 3 18 10 26 22 25 30 18 11 -10z m293 -6 c-3 -13 -6 -38 -6 -55 0 -23 -5
-33 -15 -33 -16 0 -21 25 -6 35 6 3 8 15 6 26 -5 25 4 49 17 49 6 0 8 -10 4
-22z m-479 -3 c10 -27 -6 -30 -29 -7 l-22 22 22 0 c12 0 25 -7 29 -15z m263
-11 c0 -17 -22 -14 -28 4 -2 7 3 12 12 12 9 0 16 -7 16 -16z m-679 -75 c-6
-16 -10 -18 -10 -7 -1 22 12 55 16 42 2 -6 -1 -22 -6 -35z m-877 15 c4 -9 4
-19 1 -22 -3 -3 -5 0 -5 6 0 7 -7 12 -15 12 -8 0 -15 5 -15 10 0 16 27 11 34
-6z m-73 -13 c-7 -5 -11 -14 -7 -20 5 -7 1 -9 -8 -5 -26 10 -17 34 13 34 13 0
13 -2 2 -9z m46 -26 c0 -8 -4 -15 -9 -15 -4 0 -8 7 -8 15 0 8 4 15 8 15 5 0 9
-7 9 -15z m1316 -25 l18 -30 -26 0 c-17 0 -28 7 -34 23 -18 46 16 52 42 7z
m460 -51 c-16 -16 -32 -3 -26 22 5 19 7 19 21 5 12 -12 13 -19 5 -27z m243 20
c3 -6 19 -9 35 -7 25 4 29 1 29 -18 0 -29 -20 -44 -56 -41 -30 2 -42 17 -43
55 -1 23 22 31 35 11z m338 -39 c17 0 37 -40 38 -77 2 -57 -21 -68 -63 -30
-14 12 -34 27 -45 33 -11 6 -20 24 -22 42 -3 27 0 32 25 38 15 3 33 7 38 8 6
2 12 -1 13 -5 2 -5 9 -9 16 -9z m-774 -20 c0 -5 -2 -10 -4 -10 -3 0 -8 5 -11
10 -3 6 -1 10 4 10 6 0 11 -4 11 -10z m-610 -10 c0 -5 -4 -10 -10 -10 -5 0
-10 5 -10 10 0 6 5 10 10 10 6 0 10 -4 10 -10z m-56 -99 c-4 -9 -8 -23 -8 -31
-1 -8 -4 -14 -9 -12 -9 3 -9 9 3 52 6 19 11 49 12 65 1 20 3 16 5 -14 3 -24 1
-51 -3 -60z m569 60 c-9 -11 -22 -17 -30 -14 -19 7 3 33 28 33 18 0 18 -1 2
-19z m579 -3 c-7 -7 -12 -8 -12 -2 0 14 12 26 19 19 2 -3 -1 -11 -7 -17z
m-439 -4 c-7 -3 -9 -12 -6 -20 6 -16 -12 -19 -22 -4 -9 14 3 30 23 29 10 0 12
-3 5 -5z m-723 -14 c0 -5 -7 -10 -15 -10 -8 0 -15 5 -15 10 0 6 7 10 15 10 8
0 15 -4 15 -10z m1140 -85 c0 -13 -4 -26 -9 -30 -13 -7 -34 33 -27 51 8 21 36
5 36 -21z m-563 19 c-3 -3 -12 -4 -19 -1 -8 3 -5 6 6 6 11 1 17 -2 13 -5z
m2438 -29 c0 -29 -2 -30 -45 -30 -40 0 -45 3 -48 24 -5 30 13 42 58 39 32 -3
35 -6 35 -33z m-405 16 c0 -23 -33 -82 -48 -87 -9 -3 -27 -10 -39 -16 -47 -23
-57 14 -15 60 34 39 102 68 102 43z m-2603 -53 c-3 -7 -5 -2 -5 12 0 14 2 19
5 13 2 -7 2 -19 0 -25z m2708 22 c3 -5 -1 -10 -9 -10 -9 0 -16 5 -16 10 0 6 4
10 9 10 6 0 13 -4 16 -10z m-1785 -35 c0 -8 -4 -15 -10 -15 -5 0 -10 7 -10 15
0 8 5 15 10 15 6 0 10 -7 10 -15z m-201 -22 c-5 -15 -8 -31 -6 -37 2 -6 -7
-22 -20 -35 l-23 -24 -9 24 c-5 15 -5 31 1 42 5 10 7 25 4 35 -5 14 1 17 29
19 33 1 34 1 24 -24z m1076 16 c4 -5 0 -18 -9 -28 -9 -10 -16 -30 -16 -44 0
-32 -9 -34 -38 -6 -23 21 -22 30 11 67 22 24 42 28 52 11z m-1851 -14 c-10 -8
-23 -14 -29 -14 -5 0 -1 6 9 14 11 8 24 15 30 15 5 0 1 -7 -10 -15z m2046 -15
c0 -11 -7 -20 -15 -20 -13 0 -14 4 -5 20 6 11 13 20 15 20 3 0 5 -9 5 -20z
m-1990 -11 c0 -18 -2 -19 -15 -9 -15 12 -12 30 6 30 5 0 9 -10 9 -21z m603 -1
c7 -21 -12 -48 -33 -48 -24 0 -25 8 -4 38 17 25 30 28 37 10z m213 -23 c-3 -8
-10 -15 -16 -15 -14 0 -12 37 3 43 15 5 21 -8 13 -28z m239 26 c3 -5 2 -12 -3
-15 -12 -7 -52 4 -52 15 0 12 47 12 55 0z m-1115 -21 c0 -5 -5 -10 -11 -10 -5
0 -7 5 -4 10 3 6 8 10 11 10 2 0 4 -4 4 -10z m1704 -5 c16 0 17 -22 2 -34 -20
-17 -36 -6 -36 25 0 18 4 23 13 17 6 -4 16 -8 21 -8z m396 -5 c0 -5 -4 -10
-10 -10 -5 0 -10 5 -10 10 0 6 5 10 10 10 6 0 10 -4 10 -10z m-1300 -31 c0
-24 -23 -21 -28 4 -2 10 3 17 12 17 10 0 16 -9 16 -21z m-1580 -4 c0 -8 -6
-12 -13 -9 -7 2 -22 -4 -32 -16 -22 -25 -52 -26 -57 -3 -5 23 27 42 70 43 22
0 32 -5 32 -15z m807 -37 c-3 -7 -5 -2 -5 12 0 14 2 19 5 13 2 -7 2 -19 0 -25z"/>
<path d="M4402 9540 c0 -14 2 -19 5 -12 2 6 2 18 0 25 -3 6 -5 1 -5 -13z"/>
<path d="M4350 9380 c0 -11 5 -20 10 -20 6 0 10 9 10 20 0 11 -4 20 -10 20 -5
0 -10 -9 -10 -20z"/>
<path d="M4200 9370 c0 -5 5 -10 10 -10 6 0 10 5 10 10 0 6 -4 10 -10 10 -5 0
-10 -4 -10 -10z"/>
<path d="M4110 5960 c0 -22 5 -40 10 -40 6 0 10 18 10 40 0 22 -4 40 -10 40
-5 0 -10 -18 -10 -40z"/>
<path d="M4240 5704 c0 -8 5 -12 10 -9 6 3 10 10 10 16 0 5 -4 9 -10 9 -5 0
-10 -7 -10 -16z"/>
<path d="M4201 5454 c0 -11 3 -14 6 -6 3 7 2 16 -1 19 -3 4 -6 -2 -5 -13z"/>
<path d="M4890 4390 c0 -5 5 -10 10 -10 6 0 10 5 10 10 0 6 -4 10 -10 10 -5 0
-10 -4 -10 -10z"/>
<path d="M4925 4360 c-3 -5 3 -10 15 -10 12 0 18 5 15 10 -3 6 -10 10 -15 10
-5 0 -12 -4 -15 -10z"/>
<path d="M4957 4323 c-4 -3 -7 -12 -7 -20 0 -11 4 -11 20 -3 11 6 18 15 15 21
-7 11 -19 12 -28 2z"/>
<path d="M5070 4179 c0 -5 5 -7 10 -4 6 3 10 8 10 11 0 2 -4 4 -10 4 -5 0 -10
-5 -10 -11z"/>
<path d="M5203 3027 c-23 -10 -31 -27 -13 -27 6 0 10 5 10 11 0 5 5 7 10 4 6
-4 8 -10 5 -15 -3 -5 -1 -11 4 -14 14 -9 22 9 14 32 -7 16 -12 17 -30 9z"/>
<path d="M5080 3015 c0 -8 7 -15 16 -15 11 0 15 -6 11 -20 -5 -20 7 -28 18
-10 3 5 12 7 20 3 20 -7 19 2 -2 26 -9 11 -20 18 -25 15 -4 -3 -8 0 -8 5 0 6
-7 11 -15 11 -8 0 -15 -7 -15 -15z"/>
<path d="M5228 2953 c7 -3 16 -2 19 1 4 3 -2 6 -13 5 -11 0 -14 -3 -6 -6z"/>
<path d="M5310 2920 c0 -5 5 -10 10 -10 6 0 10 5 10 10 0 6 -4 10 -10 10 -5 0
-10 -4 -10 -10z"/>
<path d="M5246 2913 c-12 -12 -6 -33 9 -33 8 0 15 6 15 14 0 17 -14 28 -24 19z"/>
<path d="M5280 2890 c0 -5 -9 -19 -20 -30 -18 -18 -18 -21 -5 -26 9 -4 19 -4
22 0 8 7 14 66 7 66 -2 0 -4 -4 -4 -10z"/>
<path d="M5520 2892 c0 -8 -8 -10 -25 -6 -35 9 -31 -2 5 -14 32 -12 44 -4 29
18 -6 11 -9 11 -9 2z"/>
<path d="M4670 2780 c0 -5 5 -10 10 -10 6 0 10 5 10 10 0 6 -4 10 -10 10 -5 0
-10 -4 -10 -10z"/>
<path d="M4760 2735 c0 -8 -5 -15 -12 -15 -9 0 -9 -3 0 -12 18 -18 15 -28 -10
-38 -22 -8 -22 -9 5 -9 26 -1 31 6 28 41 -1 9 3 19 9 23 6 3 8 11 5 16 -9 14
-25 11 -25 -6z"/>
<path d="M4714 2715 c4 -24 16 -30 16 -7 0 12 -4 22 -9 22 -5 0 -8 -7 -7 -15z"/>
<path d="M5290 2710 c0 -5 4 -10 9 -10 6 0 13 5 16 10 3 6 -1 10 -9 10 -9 0
-16 -4 -16 -10z"/>
<path d="M4669 2656 c-13 -7 -30 -11 -37 -8 -17 5 -62 -25 -62 -41 0 -7 6 -21
14 -32 13 -18 14 -18 39 1 15 10 24 25 22 32 -4 10 1 11 16 7 14 -5 19 -3 15
3 -3 6 3 13 14 17 11 3 20 10 20 15 0 17 -16 19 -41 6z"/>
<path d="M4941 2634 c0 -11 3 -14 6 -6 3 7 2 16 -1 19 -3 4 -6 -2 -5 -13z"/>
<path d="M4855 2630 c-3 -5 0 -10 9 -10 8 0 17 -6 19 -12 4 -8 6 -9 6 -2 1 18
-26 37 -34 24z"/>
<path d="M5398 2622 c-23 -5 -23 -22 0 -22 10 0 23 -5 30 -12 9 -9 12 -8 12 4
0 21 -21 35 -42 30z"/>
<path d="M4793 2613 c-7 -2 -13 -16 -13 -29 0 -13 -4 -24 -10 -24 -5 0 -10 7
-10 15 0 16 -15 21 -24 7 -8 -14 21 -43 38 -36 9 3 16 1 16 -5 0 -16 36 -13
50 4 9 11 9 15 1 15 -7 0 -10 4 -7 9 4 5 17 8 31 6 35 -3 31 14 -5 22 -16 3
-30 9 -30 14 0 10 -17 11 -37 2z"/>
<path d="M5855 2590 c-3 -5 -1 -10 4 -10 6 0 11 5 11 10 0 6 -2 10 -4 10 -3 0
-8 -4 -11 -10z"/>
<path d="M4680 2576 c0 -2 7 -9 15 -16 13 -11 14 -10 9 4 -5 14 -24 23 -24 12z"/>
<path d="M5218 2573 c7 -3 16 -2 19 1 4 3 -2 6 -13 5 -11 0 -14 -3 -6 -6z"/>
<path d="M4623 2541 c-32 -16 -39 -33 -27 -65 9 -22 41 -20 56 4 7 11 23 20
35 20 13 0 23 5 23 11 0 5 4 8 8 5 4 -2 8 4 9 14 1 13 -4 16 -18 13 -10 -3
-19 -9 -19 -14 0 -5 -6 -9 -14 -9 -9 0 -12 7 -9 20 6 23 0 23 -44 1z"/>
<path d="M5140 2540 c0 -13 5 -18 14 -14 8 3 12 12 9 20 -8 21 -23 17 -23 -6z"/>
<path d="M4843 2528 c-24 -5 -43 -13 -43 -18 0 -5 -6 -10 -12 -13 -7 -2 1 -2
17 1 17 2 32 8 33 13 2 5 12 9 22 9 10 0 22 5 25 10 3 6 5 10 3 9 -2 -1 -22
-5 -45 -11z"/>
<path d="M5428 2533 c7 -3 16 -2 19 1 4 3 -2 6 -13 5 -11 0 -14 -3 -6 -6z"/>
<path d="M5930 2517 c0 -15 4 -27 9 -27 17 0 19 15 5 35 -13 18 -14 18 -14 -8z"/>
<path d="M5080 2519 c0 -5 5 -7 10 -4 6 3 10 8 10 11 0 2 -4 4 -10 4 -5 0 -10
-5 -10 -11z"/>
<path d="M4880 2500 c0 -5 5 -10 11 -10 5 0 7 5 4 10 -3 6 -8 10 -11 10 -2 0
-4 -4 -4 -10z"/>
<path d="M5225 2500 c-8 -13 20 -24 36 -15 8 6 7 10 -2 16 -18 11 -26 11 -34
-1z"/>
<path d="M4792 2481 c-10 -6 -3 -10 22 -15 38 -7 60 -1 51 15 -8 11 -55 12
-73 0z"/>
<path d="M4715 2469 c-4 -6 -13 -8 -21 -5 -8 3 -20 -3 -26 -14 -7 -11 -21 -20
-31 -20 -15 0 -18 -7 -15 -32 4 -44 18 -41 61 9 19 24 37 40 40 35 2 -4 3 -2
1 4 -1 6 3 17 9 23 8 8 8 11 0 11 -7 0 -15 -5 -18 -11z"/>
<path d="M4915 2470 c-3 -5 -1 -10 4 -10 6 0 11 5 11 10 0 6 -2 10 -4 10 -3 0
-8 -4 -11 -10z"/>
<path d="M5098 2473 c7 -3 16 -2 19 1 4 3 -2 6 -13 5 -11 0 -14 -3 -6 -6z"/>
<path d="M4815 2440 c-7 -12 2 -12 30 0 19 8 19 9 -2 9 -12 1 -25 -3 -28 -9z"/>
<path d="M4766 2415 c-11 -8 -16 -18 -13 -22 4 -3 16 3 27 15 23 25 15 29 -14
7z"/>
<path d="M5340 2420 c-12 -8 -10 -10 8 -10 13 0 20 4 17 10 -7 12 -6 12 -25 0z"/>
<path d="M5260 2400 c-8 -5 -12 -12 -9 -15 4 -3 12 1 19 10 14 17 11 19 -10 5z"/>
<path d="M4825 2390 c4 -6 11 -8 16 -5 14 9 11 15 -7 15 -8 0 -12 -5 -9 -10z"/>
<path d="M4733 2362 c-13 -2 -23 -8 -23 -13 0 -8 47 -3 58 6 8 6 -15 11 -35 7z"/>
<path d="M5115 2360 c3 -5 8 -10 11 -10 2 0 4 5 4 10 0 6 -5 10 -11 10 -5 0
-7 -4 -4 -10z"/>
<path d="M5080 2349 c0 -5 5 -7 10 -4 6 3 10 8 10 11 0 2 -4 4 -10 4 -5 0 -10
-5 -10 -11z"/>
<path d="M5008 2343 c7 -3 16 -2 19 1 4 3 -2 6 -13 5 -11 0 -14 -3 -6 -6z"/>
<path d="M5380 2320 c0 -5 5 -10 10 -10 6 0 10 5 10 10 0 6 -4 10 -10 10 -5 0
-10 -4 -10 -10z"/>
<path d="M5600 2320 c0 -5 9 -10 20 -10 11 0 20 5 20 10 0 6 -9 10 -20 10 -11
0 -20 -4 -20 -10z"/>
<path d="M5490 2271 c0 -12 6 -21 15 -21 8 0 15 3 15 6 0 3 -7 12 -15 20 -13
14 -15 13 -15 -5z"/>
<path d="M5329 2240 c-18 -12 0 -32 23 -24 14 4 19 2 16 -7 -3 -8 -15 -14 -28
-14 -14 0 -26 -8 -31 -22 -10 -27 3 -30 25 -8 9 9 21 15 28 14 21 -2 58 13 53
22 -3 4 -12 6 -20 2 -11 -3 -15 2 -15 17 0 16 4 20 15 16 8 -3 15 -1 15 4 0
11 -63 10 -81 0z"/>
<path d="M5225 2100 c3 -5 10 -10 16 -10 5 0 9 5 9 10 0 6 -7 10 -16 10 -8 0
-12 -4 -9 -10z"/>
<path d="M4691 2211 c-12 -8 -12 -14 -4 -33 9 -18 12 -19 12 -5 1 9 6 17 11
17 6 0 10 7 10 15 0 17 -9 19 -29 6z"/>
<path d="M5400 2032 c0 -18 4 -32 9 -32 5 0 8 11 6 25 -4 38 -15 43 -15 7z"/>
<path d="M5435 1999 c-4 -6 -5 -12 -2 -15 2 -3 7 2 10 11 7 17 1 20 -8 4z"/>
<path d="M5105 1821 c-3 -5 -1 -12 5 -16 5 -3 10 1 10 9 0 18 -6 21 -15 7z"/>
<path d="M5268 1703 c-10 -2 -18 -10 -18 -18 0 -8 7 -11 20 -8 11 3 20 12 20
19 0 8 -1 13 -2 13 -2 -1 -11 -3 -20 -6z"/>
<path d="M5095 1210 c-3 -5 -1 -10 4 -10 6 0 11 5 11 10 0 6 -2 10 -4 10 -3 0
-8 -4 -11 -10z"/>
<path d="M6255 1168 c-4 -10 -4 -26 0 -35 8 -17 8 -17 12 0 3 9 3 25 0 35 -4
16 -4 16 -12 0z"/>
<path d="M5100 1160 c0 -5 5 -10 10 -10 6 0 10 5 10 10 0 6 -4 10 -10 10 -5 0
-10 -4 -10 -10z"/>
<path d="M5110 1115 c0 -16 16 -20 24 -6 3 5 -1 11 -9 15 -9 3 -15 0 -15 -9z"/>
<path d="M5070 1108 c0 -7 5 -20 10 -28 8 -12 10 -9 10 13 0 15 -4 27 -10 27
-5 0 -10 -6 -10 -12z"/>
<path d="M5048 1035 c-6 -30 7 -42 28 -24 12 10 12 14 2 20 -11 7 -11 9 0 9 7
0 10 5 7 10 -12 19 -33 10 -37 -15z"/>
<path d="M6010 975 c0 -8 5 -15 10 -15 6 0 10 7 10 15 0 8 -4 15 -10 15 -5 0
-10 -7 -10 -15z"/>
<path d="M6020 934 c0 -17 22 -14 28 4 2 7 -3 12 -12 12 -9 0 -16 -7 -16 -16z"/>
<path d="M5084 929 c-3 -6 -2 -15 2 -19 12 -12 38 5 30 19 -9 14 -23 14 -32 0z"/>
<path d="M5905 801 c-3 -5 -1 -12 5 -16 5 -3 10 1 10 9 0 18 -6 21 -15 7z"/>
<path d="M5780 710 c0 -5 5 -10 10 -10 6 0 10 5 10 10 0 6 -4 10 -10 10 -5 0
-10 -4 -10 -10z"/>
<path d="M5730 690 c0 -5 5 -10 10 -10 6 0 10 5 10 10 0 6 -4 10 -10 10 -5 0
-10 -4 -10 -10z"/>
<path d="M5200 645 c-9 -10 -9 -15 -1 -15 6 0 11 -7 11 -16 0 -9 5 -14 11 -12
6 2 10 7 10 11 -1 4 -1 16 -1 27 0 24 -13 26 -30 5z"/>
<path d="M5455 630 c-3 -5 1 -10 9 -10 9 0 16 5 16 10 0 6 -4 10 -9 10 -6 0
-13 -4 -16 -10z"/>
<path d="M5240 540 c0 -20 5 -30 15 -30 16 0 19 17 9 44 -10 26 -24 18 -24
-14z"/>
<path d="M5345 540 c-4 -6 -1 -10 4 -10 6 0 11 -7 11 -16 0 -8 5 -12 10 -9 6
3 10 12 10 20 0 16 -27 28 -35 15z"/>
<path d="M5306 471 c-4 -6 -11 -9 -15 -7 -4 3 -12 1 -19 -3 -9 -5 -8 -13 4
-29 16 -24 28 -22 43 7 11 20 -2 50 -13 32z"/>
<path d="M5370 450 c-12 -8 -12 -10 -1 -10 11 0 11 -3 1 -15 -10 -12 -9 -15 4
-15 19 0 33 27 20 40 -5 5 -15 5 -24 0z"/>
<path d="M5425 430 c3 -5 8 -10 11 -10 2 0 4 5 4 10 0 6 -5 10 -11 10 -5 0 -7
-4 -4 -10z"/>
<path d="M5177 287 c-3 -8 1 -14 8 -14 7 0 11 6 8 14 -6 16 -10 16 -16 0z"/>
<path d="M5136 257 c3 -10 9 -15 12 -12 3 3 0 11 -7 18 -10 9 -11 8 -5 -6z"/>
<path d="M5421 180 c-20 -12 -23 -40 -5 -40 15 0 28 23 22 39 -2 6 -9 7 -17 1z"/>
<path d="M5060 12731 c0 -82 15 -130 44 -141 30 -11 178 5 214 24 53 27 72 62
72 127 l0 59 -165 0 -165 0 0 -69z"/>
<path d="M5622 12717 c3 -46 8 -89 12 -95 4 -7 32 -31 63 -53 39 -29 61 -55
75 -88 31 -71 61 -98 103 -93 19 2 35 8 35 14 0 5 3 7 8 5 4 -3 20 5 35 17
l28 23 3 176 2 177 -184 0 -184 0 4 -83z"/>
<path d="M6164 12768 c4 -18 12 -96 19 -173 14 -160 21 -175 100 -228 35 -23
65 -54 87 -91 37 -60 64 -71 105 -40 17 13 20 31 26 162 10 217 23 271 55 227
7 -9 35 -28 62 -40 47 -22 51 -26 62 -77 7 -29 13 -94 15 -144 2 -102 14 -125
92 -171 41 -24 123 -107 123 -124 0 -15 41 -21 57 -8 27 23 35 61 38 191 2 69
9 144 14 166 l11 40 43 -20 c39 -18 45 -26 56 -68 7 -27 14 -96 15 -155 3 -99
5 -108 27 -123 13 -9 26 -19 29 -23 3 -3 32 -20 65 -37 33 -16 80 -48 104 -71
34 -32 47 -39 57 -30 8 6 14 21 14 33 0 25 26 126 35 134 9 9 22 -16 30 -55 9
-52 52 -92 100 -93 65 -1 76 1 64 16 -8 10 -8 22 0 45 6 18 11 63 11 101 0 38
7 84 15 104 8 20 17 71 19 113 5 76 21 131 38 131 4 0 8 5 8 11 0 6 -7 8 -16
5 -22 -8 -13 15 11 28 11 6 28 21 38 34 10 12 25 22 32 22 8 0 21 13 29 29 13
24 21 29 46 27 32 -2 48 10 34 24 -5 5 -29 12 -54 15 -99 11 -124 16 -149 29
-14 8 -53 20 -86 27 -33 7 -67 18 -75 24 -8 7 -22 15 -30 19 -8 3 -28 15 -45
25 -29 19 -57 20 -684 20 l-653 1 6 -32z"/>
<path d="M8343 12328 c-6 -7 -13 -39 -17 -71 -5 -48 -4 -59 10 -64 27 -10 42
21 36 79 -5 59 -14 75 -29 56z"/>
<path d="M1037 12178 c1 -24 2 -50 4 -58 9 -55 -16 -79 -62 -62 -31 12 -49 5
-49 -18 0 -26 26 -32 74 -18 22 6 46 11 53 9 15 -2 93 37 93 47 0 4 -15 14
-32 22 -25 11 -35 25 -43 55 -19 75 -41 88 -38 23z"/>
<path d="M1170 11815 c0 -4 7 -20 16 -37 12 -24 18 -28 25 -17 5 8 9 24 9 37
0 17 -6 22 -25 22 -14 0 -25 -2 -25 -5z"/>
<path d="M1300 11690 c-8 -5 -24 -10 -36 -10 -11 0 -29 -9 -38 -19 -10 -11
-30 -21 -45 -23 -20 -2 -26 -8 -26 -28 0 -20 6 -26 28 -28 16 -2 34 1 40 6 7
6 29 13 49 17 45 9 117 73 96 86 -17 12 -49 11 -68 -1z"/>
<path d="M8314 11542 c-30 -21 -48 -254 -22 -280 17 -17 47 -15 54 3 24 62 69
-62 83 -230 9 -100 8 -114 -9 -150 -24 -49 -52 -67 -102 -67 -59 1 -67 -19
-69 -175 -2 -109 1 -136 15 -157 9 -14 23 -26 31 -26 25 0 30 -1 44 -13 65
-55 102 -233 66 -320 -22 -52 -59 -78 -105 -72 -66 8 -71 -4 -86 -216 -5 -85
-5 -87 22 -108 14 -11 36 -21 47 -21 26 0 83 -36 92 -58 4 -9 10 -61 13 -114
4 -80 2 -102 -12 -123 -19 -29 -67 -51 -115 -53 -20 0 -43 -10 -58 -24 -25
-23 -25 -24 -19 -140 6 -111 5 -118 -14 -128 -14 -7 -20 -21 -20 -43 0 -18 -6
-43 -14 -57 -7 -14 -23 -44 -36 -68 l-23 -43 23 -79 c17 -61 20 -83 11 -93
-12 -15 -11 -87 2 -87 4 0 7 8 7 18 0 10 9 28 20 40 11 12 20 29 20 39 1 29
34 66 56 61 11 -2 18 -11 18 -21 -1 -9 2 -17 6 -17 4 0 5 -11 3 -23 -3 -16 4
-34 19 -52 22 -26 31 -28 96 -30 98 -2 122 -19 122 -85 0 -27 -4 -52 -10 -55
-5 -3 -10 -22 -10 -42 0 -42 -47 -93 -89 -94 -14 0 -35 -3 -46 -6 -11 -3 -39
-7 -63 -10 -36 -4 -46 -2 -58 16 -8 12 -24 21 -34 21 -11 0 -24 9 -30 20 -13
25 -56 27 -63 3 -3 -10 -18 -45 -32 -78 -21 -46 -28 -81 -31 -152 -2 -50 -8
-102 -12 -114 -29 -76 33 -108 215 -112 109 -2 126 -4 138 -21 34 -46 -63 -93
-132 -64 -16 6 -78 12 -140 12 -101 1 -115 3 -134 22 -20 21 -24 21 -82 8 -53
-13 -63 -13 -83 1 -19 12 -24 25 -25 63 -1 26 -1 53 0 59 1 7 -3 30 -9 52 -6
22 -15 187 -20 368 -9 329 -26 533 -43 533 -5 0 -6 33 -2 80 7 77 6 80 -14 80
-12 0 -21 -6 -21 -12 -1 -7 -10 -78 -21 -158 -36 -252 -60 -440 -79 -605 -15
-132 -31 -236 -41 -263 -9 -24 -29 -148 -33 -200 -2 -44 -70 -69 -109 -39 -21
15 -35 77 -18 77 7 0 9 5 4 13 -23 36 -42 303 -49 682 -3 216 -9 342 -16 346
-7 4 -8 32 -3 78 6 58 4 76 -10 97 -20 30 -26 26 -31 -18 -2 -18 -8 -64 -13
-103 -6 -38 -15 -108 -21 -155 -27 -215 -41 -318 -51 -358 -5 -24 -14 -105
-20 -180 -10 -144 -17 -202 -43 -342 -9 -47 -16 -97 -16 -112 0 -16 -4 -28
-10 -28 -5 0 -10 -11 -10 -25 0 -29 -30 -45 -84 -45 -58 0 -66 14 -71 128 -3
57 -9 111 -14 120 -11 21 -19 200 -26 601 -5 279 -12 349 -29 305 -6 -16 -10
-14 -22 15 -16 38 -19 101 -5 101 6 0 12 -17 14 -37 2 -21 2 -4 0 37 -3 41 -9
77 -14 78 -5 2 -9 12 -9 23 0 10 -4 19 -9 19 -15 0 -22 -33 -47 -230 -15 -124
-21 -179 -63 -565 -12 -110 -29 -249 -37 -310 -8 -60 -19 -149 -24 -197 -12
-122 -23 -141 -85 -150 -79 -12 -92 -6 -104 52 -6 28 -11 70 -11 93 0 23 -5
74 -11 112 -6 39 -12 151 -14 250 -10 558 -18 745 -30 745 -9 0 -15 26 -20 80
-6 72 -15 95 -28 73 -2 -5 -2 -2 0 5 1 8 -4 20 -12 28 -19 20 -19 54 0 54 8 0
15 5 15 11 0 5 -4 8 -9 4 -13 -8 -24 30 -17 63 3 15 2 33 -3 40 -13 21 -22
-10 -31 -103 -5 -44 -13 -118 -20 -165 -6 -47 -15 -125 -19 -175 -5 -49 -16
-160 -25 -245 -9 -85 -21 -204 -27 -265 -24 -268 -40 -436 -49 -513 -6 -46 -8
-87 -5 -92 3 -5 -1 -11 -7 -13 -8 -3 -6 -6 5 -6 10 -1 16 -5 13 -9 -3 -5 18
-20 46 -33 29 -13 68 -36 87 -50 20 -14 50 -29 66 -33 17 -4 44 -14 60 -21 17
-7 43 -16 58 -19 66 -15 103 -84 177 -331 46 -155 51 -178 49 -261 -2 -103 18
-162 49 -148 27 11 144 39 312 73 192 40 325 68 410 86 120 27 494 114 555
130 33 9 96 25 140 36 44 11 130 36 190 54 61 19 184 52 275 74 140 33 188 40
315 45 305 13 399 13 461 -1 61 -14 114 -6 114 16 0 16 31 41 51 41 11 0 24
-11 31 -25 6 -14 15 -25 20 -25 4 0 8 99 8 221 0 133 -4 218 -9 214 -5 -3 -29
15 -52 40 -23 25 -47 45 -52 45 -8 0 -97 63 -148 104 -8 7 -30 16 -47 19 -31
6 -31 6 -28 -32 2 -25 -3 -46 -14 -61 -16 -22 -24 -23 -91 -20 -41 1 -92 3
-114 4 -68 2 -107 75 -74 139 11 22 58 70 72 74 34 11 58 41 72 88 19 67 20
65 -10 65 -14 0 -28 7 -31 15 -4 8 -12 15 -20 15 -8 0 -14 10 -14 24 0 13 -6
27 -12 30 -9 4 -6 10 10 22 12 9 22 23 22 31 0 7 7 16 15 19 27 11 16 25 -19
22 -19 -1 -45 6 -60 16 -33 21 -51 11 -60 -36 -12 -61 -89 -81 -121 -31 -17
26 -17 32 -3 102 9 41 14 88 13 105 -2 17 -3 83 -3 146 1 63 1 191 -1 284 -1
108 2 181 10 205 15 45 51 99 57 83 2 -7 11 -12 21 -12 28 0 65 -124 53 -177
-11 -48 -1 -168 15 -184 13 -13 60 -1 76 20 16 22 169 101 195 101 12 0 24 5
27 10 9 15 41 12 55 -5 15 -18 30 -19 30 -2 0 6 15 18 33 26 17 7 52 22 76 33
28 12 54 17 70 14 14 -4 33 -8 41 -9 13 -2 15 110 18 948 1 677 -1 956 -9 971
-7 13 -8 45 -4 85 3 35 8 117 11 182 5 108 4 117 -13 117 -10 0 -70 4 -133 10
-63 5 -176 11 -250 15 -74 3 -149 8 -166 11 -18 3 -67 -4 -115 -17 -87 -24
-96 -24 -392 -17 -142 3 -150 4 -168 27 -11 14 -19 39 -19 62 0 39 -9 53 -26
41z m583 -1342 c26 -48 28 -79 27 -350 -1 -297 -4 -362 -17 -379 -9 -10 -7
-16 6 -26 9 -6 15 -14 12 -17 -2 -2 -5 -18 -7 -35 -4 -50 -47 -52 -55 -3 -23
146 -21 514 3 783 4 37 8 66 9 65 2 -2 11 -19 22 -38z m-404 -1015 c14 -10 18
-25 17 -62 -2 -45 -5 -93 -8 -120 -1 -6 -18 -11 -38 -10 -42 1 -67 -25 -31
-33 16 -4 18 -8 9 -14 -7 -4 -19 -2 -27 4 -16 13 -21 50 -6 50 4 0 11 16 14
36 5 28 1 43 -13 62 -18 23 -19 41 -4 90 5 16 64 15 87 -3z m115 -27 c18 -18
14 -38 -7 -38 -22 0 -45 25 -36 40 8 13 28 13 43 -2z m-1808 -54 c0 -8 -4 -12
-10 -9 -5 3 -10 10 -10 16 0 5 5 9 10 9 6 0 10 -7 10 -16z m480 1 c0 -8 -2
-15 -4 -15 -2 0 -6 7 -10 15 -3 8 -1 15 4 15 6 0 10 -7 10 -15z m1015 -129
c19 -8 35 -20 35 -26 0 -20 -40 -44 -79 -47 -35 -2 -40 1 -48 25 -20 61 16 80
92 48z m328 -77 c19 -8 23 -17 19 -37 -5 -29 -29 -62 -44 -62 -5 0 -16 -7 -25
-16 -9 -8 -25 -14 -37 -12 -18 3 -21 8 -18 48 6 73 48 105 105 79z m200 -940
c13 -20 -15 -69 -38 -69 -20 0 -73 50 -59 56 6 3 20 11 30 19 24 18 54 15 67
-6z"/>
<path d="M1440 11142 c0 -15 22 -30 36 -25 24 9 16 33 -11 33 -14 0 -25 -4
-25 -8z"/>
<path d="M1266 11062 c-2 -4 -7 -24 -11 -45 -7 -36 -36 -64 -54 -53 -4 3 -18
-5 -29 -17 -21 -22 -21 -25 -6 -63 17 -43 62 -73 104 -68 14 1 33 3 43 3 24 1
21 18 -9 58 -15 20 -23 41 -20 50 4 8 1 21 -5 29 -17 20 -2 53 21 47 23 -6 27
16 10 48 -11 19 -35 26 -44 11z"/>
<path d="M824 10926 c-9 -24 4 -64 24 -75 12 -7 24 -4 41 10 25 21 22 49 -5
49 -10 0 -26 7 -36 16 -16 16 -18 16 -24 0z"/>
<path d="M1422 10907 c-11 -13 -11 -20 0 -39 l13 -23 3 23 c2 12 2 30 0 39 -3
15 -4 15 -16 0z"/>
<path d="M805 10781 c-3 -5 -1 -12 5 -16 5 -3 10 1 10 9 0 18 -6 21 -15 7z"/>
<path d="M838 10784 c-5 -4 -8 -16 -8 -26 0 -11 -4 -17 -9 -13 -6 3 -15 -3
-21 -14 -8 -16 -6 -23 12 -35 12 -9 35 -16 51 -16 25 0 27 3 21 23 -3 12 -12
29 -19 37 -7 8 -15 23 -16 33 -2 11 -7 15 -11 11z"/>
<path d="M5031 10654 c0 -11 3 -14 6 -6 3 7 2 16 -1 19 -3 4 -6 -2 -5 -13z"/>
<path d="M3505 10370 c-3 -5 -1 -10 4 -10 6 0 11 5 11 10 0 6 -2 10 -4 10 -3
0 -8 -4 -11 -10z"/>
<path d="M7666 9216 c-3 -13 -2 -35 3 -48 8 -19 10 -15 10 25 1 52 -4 60 -13
23z"/>
<path d="M7265 9210 c-3 -5 -1 -10 4 -10 6 0 11 5 11 10 0 6 -2 10 -4 10 -3 0
-8 -4 -11 -10z"/>
<path d="M9550 9067 c-14 -6 -27 -14 -30 -18 -9 -11 -71 -28 -84 -23 -18 7
-32 -16 -16 -26 8 -5 9 -13 4 -21 -5 -8 -9 -18 -9 -24 0 -5 -7 -10 -15 -11 -8
-1 -20 -2 -26 -2 -6 -1 -21 -23 -32 -49 -23 -51 -39 -79 -59 -101 -7 -7 -13
-21 -13 -30 0 -9 -11 -35 -25 -57 -28 -47 -31 -70 -9 -79 25 -10 112 -7 119 4
3 6 30 10 60 10 30 0 57 -4 60 -10 3 -5 33 -10 66 -10 l59 0 0 44 c0 35 -4 46
-19 51 -11 3 -31 21 -46 40 -23 31 -26 43 -23 97 l3 62 43 9 43 8 -3 71 c-2
39 -7 73 -13 74 -5 1 -21 -3 -35 -9z m-95 -77 c3 -5 1 -10 -4 -10 -6 0 -11 5
-11 10 0 6 2 10 4 10 3 0 8 -4 11 -10z"/>
<path d="M9425 9050 c-3 -5 -1 -10 4 -10 6 0 11 5 11 10 0 6 -2 10 -4 10 -3 0
-8 -4 -11 -10z"/>
<path d="M9178 8426 c-60 -10 -68 -19 -43 -52 19 -25 19 -68 0 -84 -17 -14
-20 -36 -5 -45 5 -3 23 1 40 10 16 8 32 15 35 14 18 -3 96 16 127 32 21 11 42
19 48 19 19 0 100 62 100 76 0 7 -8 17 -17 22 -27 14 -219 19 -285 8z"/>
<path d="M3160 8250 c0 -5 5 -10 10 -10 6 0 10 5 10 10 0 6 -4 10 -10 10 -5 0
-10 -4 -10 -10z"/>
<path d="M3232 8054 c10 -10 20 -16 22 -13 3 3 -5 11 -17 18 -21 13 -21 12 -5
-5z"/>
<path d="M2461 7467 c9 -7 18 -21 20 -32 3 -15 26 -24 119 -47 63 -15 119 -26
123 -25 5 1 -22 13 -60 26 -37 13 -98 39 -135 57 -69 35 -96 43 -67 21z"/>
<path d="M6514 7254 c-18 -15 -18 -15 6 -10 14 3 28 6 33 6 4 0 7 5 7 10 0 15
-24 12 -46 -6z"/>
<path d="M6590 7149 c0 -5 5 -7 10 -4 6 3 10 8 10 11 0 2 -4 4 -10 4 -5 0 -10
-5 -10 -11z"/>
<path d="M6148 7073 c6 -2 18 -2 25 0 6 3 1 5 -13 5 -14 0 -19 -2 -12 -5z"/>
<path d="M1512 6830 c0 -14 2 -19 5 -12 2 6 2 18 0 25 -3 6 -5 1 -5 -13z"/>
<path d="M6617 6823 c-2 -5 7 -18 20 -30 24 -24 26 -22 17 15 -6 21 -29 30
-37 15z"/>
<path d="M1514 6759 c4 -24 7 -75 9 -114 1 -38 7 -73 12 -77 6 -5 6 -8 -1 -8
-18 0 -8 -72 12 -87 17 -12 17 -13 -4 -13 -12 0 -22 4 -22 9 0 4 -11 6 -25 3
-14 -2 -25 -10 -25 -17 0 -15 31 -25 80 -25 29 -1 32 -3 20 -13 -9 -7 -24 -31
-34 -55 -11 -23 -25 -47 -33 -53 -7 -6 -13 -24 -13 -40 0 -16 -4 -29 -10 -29
-16 0 -12 -36 5 -50 9 -7 14 -19 11 -26 -3 -7 -1 -16 5 -19 5 -4 7 -10 4 -15
-3 -4 2 -13 10 -20 8 -7 12 -16 9 -21 -3 -5 3 -9 14 -9 18 0 52 -28 52 -43 0
-4 -15 -7 -34 -7 -57 0 -57 -35 2 -86 l24 -22 -22 -22 c-13 -13 -25 -18 -29
-12 -10 16 -54 -5 -47 -23 3 -9 -1 -18 -9 -21 -20 -8 -8 -34 36 -75 35 -33 37
-37 24 -55 -14 -18 -14 -18 -15 0 0 15 -3 16 -14 7 -11 -10 -16 -8 -24 5 -8
14 -13 16 -24 6 -8 -6 -17 -10 -19 -8 -2 3 -15 -3 -28 -13 l-24 -18 22 -36
c18 -30 72 -67 96 -67 5 0 33 -16 63 -36 30 -21 72 -42 92 -48 21 -6 38 -14
39 -18 3 -22 -1 -29 -24 -38 -33 -13 -32 -26 5 -39 35 -12 39 -28 8 -33 -22
-3 -23 -7 -20 -71 2 -46 -1 -74 -10 -84 -7 -9 -13 -26 -14 -37 -1 -24 -14 -76
-23 -91 -7 -13 -11 -32 -14 -75 -1 -19 -7 -41 -14 -48 -6 -7 -15 -32 -19 -57
-3 -25 -10 -45 -16 -45 -5 0 -8 -6 -6 -12 1 -7 -4 -24 -12 -38 -7 -14 -12 -26
-11 -28 4 -4 -11 -67 -19 -77 -4 -5 -11 -25 -15 -43 -4 -18 -13 -45 -21 -60
-8 -15 -14 -36 -14 -48 0 -11 -4 -24 -10 -30 -5 -5 -15 -37 -21 -69 -6 -33
-14 -64 -19 -70 -4 -5 -10 -36 -13 -69 -3 -32 -18 -82 -32 -113 -15 -30 -29
-72 -32 -94 -3 -22 -10 -42 -15 -46 -19 -11 8 212 43 364 29 122 28 123 -120
123 -105 0 -110 1 -129 25 -39 50 -91 50 -130 1 -22 -29 -47 -33 -75 -12 -13
10 -28 11 -60 4 -78 -18 -115 -20 -136 -8 -12 6 -54 19 -93 29 l-70 18 -33
-33 c-33 -33 -33 -33 -121 -30 -49 2 -96 6 -104 9 -8 3 -39 8 -68 11 -42 4
-58 11 -73 31 -28 34 -39 31 -39 -10 0 -24 -5 -35 -15 -35 -8 0 -15 -4 -15 -9
0 -6 -12 -3 -27 5 -16 7 -34 14 -40 14 -10 0 -13 -464 -13 -2285 l0 -2285 840
0 c462 0 840 1 840 3 0 4 -37 187 -55 272 -47 225 -58 259 -96 310 -21 28 -41
64 -44 80 -4 17 -18 64 -32 105 -22 65 -25 88 -21 180 3 76 1 97 -6 78 -9 -27
-26 -38 -26 -19 0 5 -13 80 -30 168 -16 87 -34 210 -40 273 -5 63 -12 126 -15
140 -3 14 -9 102 -15 195 -9 143 -8 179 5 225 8 30 26 103 40 163 26 116 25
127 -19 186 -48 64 -73 187 -76 383 -1 86 1 101 26 150 15 29 37 67 50 84 13
17 27 46 30 65 10 58 14 66 24 49 13 -21 22 7 18 56 -2 32 -7 40 -26 42 -26 4
-86 79 -103 129 -7 21 -10 70 -7 122 4 74 9 96 41 158 46 91 47 131 6 225
l-31 70 20 52 c13 35 25 50 35 48 9 -1 45 10 79 27 81 37 131 51 190 51 52 0
101 -17 95 -34 -3 -10 -19 -14 -198 -54 -90 -20 -144 -44 -163 -75 -9 -14 -6
-21 19 -41 31 -26 46 -33 180 -86 44 -17 96 -45 115 -61 l35 -29 -45 4 c-115
11 -167 18 -192 28 -15 6 -39 7 -53 4 -21 -5 -25 -12 -25 -46 0 -26 -11 -60
-32 -97 -17 -32 -37 -69 -45 -83 -7 -14 -13 -42 -13 -62 0 -35 2 -37 50 -53
64 -21 144 -21 193 -1 55 24 210 122 236 150 13 14 23 37 23 56 1 26 3 30 12
18 6 -8 19 -17 29 -21 27 -10 22 -73 -9 -118 -29 -43 -49 -57 -146 -107 -74
-38 -111 -70 -135 -116 -14 -27 -14 -31 3 -43 22 -16 38 -16 134 1 49 9 87 10
113 4 22 -5 44 -7 50 -5 6 2 36 102 67 223 157 607 149 586 249 655 97 67 95
64 71 150 -11 41 -38 151 -60 244 -22 94 -50 204 -64 245 -33 103 -113 442
-151 640 -25 132 -36 166 -132 430 -117 323 -160 448 -193 569 -42 148 -90
367 -90 406 0 13 -5 27 -11 30 -7 5 -9 -7 -5 -36z"/>
<path d="M6715 6719 c-4 -6 -5 -12 -2 -15 2 -3 7 2 10 11 7 17 1 20 -8 4z"/>
<path d="M6755 6520 c-3 -5 -1 -18 4 -27 9 -16 10 -14 11 10 0 28 -5 34 -15
17z"/>
<path d="M6751 6454 c0 -11 3 -14 6 -6 3 7 2 16 -1 19 -3 4 -6 -2 -5 -13z"/>
<path d="M7005 6003 c-15 -74 -15 -102 2 -111 18 -11 16 -46 -11 -166 -11 -50
-13 -80 -6 -110 5 -22 6 -67 3 -98 -5 -46 -2 -61 14 -83 17 -24 26 -27 89 -29
38 -1 96 -9 128 -19 46 -13 62 -14 74 -5 22 19 83 10 118 -17 17 -13 33 -22
36 -20 2 3 27 7 54 10 46 4 53 2 81 -25 45 -44 75 -52 124 -35 23 8 57 28 75
45 45 39 70 38 118 -6 82 -74 128 -79 175 -20 17 21 31 42 31 47 0 11 -60 55
-87 63 -35 11 -73 63 -73 101 0 45 -11 50 -57 25 -47 -25 -45 -25 -77 5 -19
17 -38 25 -64 25 -20 0 -52 9 -71 21 -19 12 -46 19 -64 17 -28 -3 -32 -7 -43
-57 -12 -56 -32 -80 -68 -82 -12 -1 -48 -3 -81 -4 -33 -1 -74 -6 -90 -9 -23
-6 -36 -3 -54 13 -13 11 -40 24 -60 27 -20 4 -47 17 -60 30 -20 20 -22 30 -17
66 3 24 11 110 17 192 l12 149 -24 18 c-13 10 -29 19 -35 19 -7 0 -14 7 -18
15 -3 8 -14 15 -24 15 -11 0 -25 7 -32 15 -19 23 -27 18 -35 -22z"/>
<path d="M9356 5674 c-3 -9 -9 -40 -12 -71 -8 -66 -28 -92 -74 -99 -31 -5 -37
-2 -53 26 -26 48 -42 33 -42 -41 0 -55 -4 -70 -30 -106 -35 -49 -56 -57 -103
-37 -41 17 -78 18 -87 4 -4 -7 -24 -8 -52 -4 -24 3 -65 8 -91 9 -74 5 -136 22
-198 55 -60 32 -80 32 -109 0 -31 -34 -117 -18 -159 29 -28 31 -51 26 -117
-25 -82 -65 -79 -80 21 -114 36 -12 71 -27 78 -32 7 -7 36 -8 72 -5 52 6 62 4
79 -14 l20 -21 88 22 c48 13 104 34 123 47 50 33 84 30 109 -9 11 -18 41 -44
68 -58 26 -14 59 -32 73 -42 29 -19 80 -19 80 0 0 6 6 12 14 12 8 0 16 7 20
15 3 10 19 15 46 15 31 0 47 -7 70 -29 17 -15 30 -35 30 -43 0 -9 8 -26 18
-39 10 -13 23 -36 30 -51 12 -30 36 -35 101 -22 36 7 44 42 12 51 -24 6 -30
21 -24 55 8 39 51 54 105 36 24 -7 64 -12 91 -10 43 4 47 6 47 31 0 18 -11 34
-35 51 -19 14 -37 33 -40 43 -4 9 -20 24 -36 33 -74 38 -93 148 -39 222 32 44
40 98 18 120 -18 18 -105 15 -112 -4z"/>
<path d="M2680 5660 c20 -13 43 -13 35 0 -3 6 -16 10 -28 10 -18 0 -19 -2 -7
-10z"/>
<path d="M470 5575 c-71 -29 -80 -59 -23 -74 71 -19 230 -25 304 -11 70 13 70
14 67 44 l-3 31 -105 1 c-72 1 -117 6 -144 18 -21 9 -39 16 -40 15 0 0 -26
-11 -56 -24z"/>
<path d="M1530 5470 c8 -5 22 -9 30 -9 10 0 8 3 -5 9 -27 12 -43 12 -25 0z"/>
<path d="M2670 5470 c0 -5 5 -10 10 -10 6 0 10 5 10 10 0 6 -4 10 -10 10 -5 0
-10 -4 -10 -10z"/>
<path d="M1408 5453 c6 -2 9 -10 6 -15 -4 -6 1 -17 11 -25 14 -9 15 -13 4 -13
-13 -1 28 -29 44 -30 14 0 7 32 -14 61 -12 18 -29 29 -42 28 -12 0 -16 -3 -9
-6z"/>
<path d="M2669 5423 c-1 -10 0 -26 0 -36 2 -10 -7 -21 -21 -26 -20 -8 -21 -10
-5 -16 9 -4 17 -16 17 -26 0 -21 -16 -26 -23 -6 -3 7 -6 5 -6 -5 -1 -9 -9 -22
-18 -27 -16 -9 -15 -10 6 -11 24 0 24 0 5 -15 -16 -12 -17 -14 -3 -15 9 0 20
-7 23 -16 5 -13 1 -15 -19 -10 -14 4 -25 2 -25 -3 0 -8 60 -24 67 -17 2 2 -1
16 -7 31 -10 27 -10 27 25 23 19 -2 35 0 35 4 0 4 -9 8 -19 8 -24 0 -35 30
-26 69 11 53 14 111 4 111 -5 0 -10 -8 -10 -17z"/>
<path d="M2711 5414 c0 -11 3 -14 6 -6 3 7 2 16 -1 19 -3 4 -6 -2 -5 -13z"/>
<path d="M2705 5340 c-3 -5 -1 -10 4 -10 6 0 11 5 11 10 0 6 -2 10 -4 10 -3 0
-8 -4 -11 -10z"/>
<path d="M1420 5136 c0 -2 7 -7 16 -10 8 -3 12 -2 9 4 -6 10 -25 14 -25 6z"/>
<path d="M1420 5110 c0 -5 5 -10 11 -10 5 0 7 5 4 10 -3 6 -8 10 -11 10 -2 0
-4 -4 -4 -10z"/>
<path d="M9031 5114 c-1 -6 -12 -16 -26 -22 -15 -7 -25 -20 -25 -32 0 -15 7
-20 25 -20 15 0 25 6 25 14 0 8 4 16 8 18 5 2 5 14 1 28 -4 14 -7 20 -8 14z"/>
<path d="M1420 5051 c0 -17 -5 -33 -11 -36 -18 -12 1 -278 21 -290 23 -14 38
308 16 343 -13 21 -26 13 -26 -17z"/>
<path d="M1145 4750 c-4 -12 -5 -24 -2 -27 3 -2 8 5 12 17 4 12 5 24 2 27 -3
2 -8 -5 -12 -17z"/>
<path d="M2553 4714 c-3 -8 -1 -20 5 -26 7 -7 10 -2 9 16 -2 30 -5 32 -14 10z"/>
<path d="M7950 4615 c0 -14 5 -25 10 -25 6 0 10 11 10 25 0 14 -4 25 -10 25
-5 0 -10 -11 -10 -25z"/>
<path d="M8120 4605 c-14 -16 -3 -20 19 -6 8 5 9 11 3 15 -5 3 -15 -1 -22 -9z"/>
<path d="M9448 4563 c6 -2 18 -2 25 0 6 3 1 5 -13 5 -14 0 -19 -2 -12 -5z"/>
<path d="M9562 4468 c3 -7 13 -15 24 -17 16 -3 17 -1 5 13 -16 19 -34 21 -29
4z"/>
<path d="M2540 4340 c0 -5 5 -10 10 -10 6 0 10 5 10 10 0 6 -4 10 -10 10 -5 0
-10 -4 -10 -10z"/>
<path d="M2580 4330 c0 -5 7 -7 15 -4 8 4 15 8 15 10 0 2 -7 4 -15 4 -8 0 -15
-4 -15 -10z"/>
<path d="M2670 4261 c0 -6 5 -13 10 -16 6 -3 10 1 10 9 0 9 -4 16 -10 16 -5 0
-10 -4 -10 -9z"/>
<path d="M2710 4250 c0 -5 5 -10 11 -10 5 0 7 5 4 10 -3 6 -8 10 -11 10 -2 0
-4 -4 -4 -10z"/>
<path d="M7151 3904 c0 -11 3 -14 6 -6 3 7 2 16 -1 19 -3 4 -6 -2 -5 -13z"/>
<path d="M9060 3345 c0 -8 7 -15 15 -15 8 0 15 4 15 9 0 5 -7 11 -15 15 -9 3
-15 0 -15 -9z"/>
<path d="M2910 3309 c0 -5 5 -7 10 -4 6 3 10 8 10 11 0 2 -4 4 -10 4 -5 0 -10
-5 -10 -11z"/>
<path d="M2952 3271 c-14 -8 -11 -59 4 -69 15 -9 46 -72 49 -97 4 -33 5 -35
15 -35 5 0 12 17 16 37 5 29 2 46 -14 75 -13 22 -18 39 -12 43 6 3 10 1 10 -4
0 -6 4 -11 9 -11 4 0 8 12 7 28 -1 15 -4 26 -8 24 -4 -1 -15 -5 -24 -9 -10 -4
-22 0 -29 10 -6 8 -16 12 -23 8z"/>
<path d="M1435 3058 c-16 -28 -49 -78 -73 -110 -58 -80 -54 -93 28 -93 56 0
78 6 159 45 73 35 104 56 142 99 53 60 57 71 33 95 -12 13 -40 16 -137 16
l-122 0 -30 -52z"/>
<path d="M8885 3079 c-10 -30 6 -42 38 -30 17 7 27 18 27 31 0 29 -56 29 -65
-1z"/>
<path d="M1721 2866 c-12 -13 -46 -31 -74 -40 -64 -20 -117 -60 -101 -75 19
-20 165 -61 169 -48 6 18 45 175 45 181 0 13 -18 5 -39 -18z"/>
<path d="M1316 2640 c52 -96 102 -129 227 -149 98 -16 137 -5 137 39 0 16 2
35 5 42 7 18 -123 55 -240 68 -44 6 -81 14 -83 20 -2 6 -7 8 -12 5 -4 -3 -13
2 -20 10 -7 8 -19 15 -27 15 -11 0 -7 -13 13 -50z"/>
<path d="M2041 2443 c-140 -197 -193 -246 -238 -217 -37 23 -35 17 13 -47 54
-70 69 -79 94 -53 35 35 222 414 205 414 -2 0 -35 -44 -74 -97z"/>
<path d="M2635 2109 c-10 -15 4 -119 16 -119 5 0 9 -12 9 -26 0 -16 4 -23 12
-18 6 4 8 3 5 -4 -10 -15 3 -43 16 -35 6 4 8 0 4 -10 -3 -8 0 -21 8 -27 10 -8
18 -4 35 17 18 23 21 36 16 72 -3 24 -6 57 -6 72 0 20 -4 27 -14 23 -8 -3 -22
9 -34 30 -21 36 -54 48 -67 25z"/>
<path d="M8700 1962 c0 -4 -13 -13 -30 -19 l-29 -11 4 -91 4 -91 -35 0 c-49 0
-74 -29 -74 -85 0 -52 4 -54 74 -21 28 13 73 27 99 31 63 10 69 28 23 69 -37
35 -44 54 -25 73 15 15 16 96 1 101 -14 4 -16 32 -2 32 6 0 10 5 10 10 0 6 -4
10 -10 10 -5 0 -10 -4 -10 -8z"/>
<path d="M8185 1704 c-5 -1 -22 -5 -37 -8 -24 -6 -26 -9 -16 -25 12 -19 65
-45 108 -54 14 -2 32 -6 40 -8 10 -3 16 5 18 21 2 22 -5 29 -50 51 -29 14 -57
25 -63 23z"/>
<path d="M7084 1485 c-9 -22 -1 -27 30 -19 31 7 29 28 -2 32 -13 2 -25 -3 -28
-13z"/>
<path d="M7177 1483 c-12 -11 -8 -23 7 -23 8 0 16 7 20 15 5 15 -14 21 -27 8z"/>
<path d="M8567 893 c-4 -3 -7 -15 -7 -25 0 -23 48 -25 57 -2 9 23 -32 45 -50
27z"/>
<path d="M7045 840 c-3 -5 -4 -10 -1 -10 2 0 11 -3 20 -6 11 -4 16 -1 16 10 0
18 -25 22 -35 6z"/>
<path d="M7985 760 c-10 -11 -16 -22 -14 -23 11 -9 70 -29 74 -26 5 6 -26 69
-35 69 -4 0 -15 -9 -25 -20z"/>
<path d="M8623 718 c-30 -48 -31 -63 0 -95 27 -30 44 -29 73 3 32 34 31 74 -4
107 -15 15 -31 27 -35 27 -4 0 -19 -19 -34 -42z"/>
<path d="M8426 713 c-10 -11 -7 -48 6 -61 7 -7 8 -12 4 -12 -5 0 3 -9 17 -20
22 -17 47 -26 47 -17 0 2 -11 26 -25 54 -25 53 -38 67 -49 56z"/>
<path d="M7923 665 c-3 -9 -3 -18 -1 -21 9 -9 38 8 38 22 0 19 -29 18 -37 -1z"/>
<path d="M9048 662 c-34 -20 -43 -51 -20 -68 27 -21 41 -16 47 14 12 57 13 62
6 66 -3 3 -18 -3 -33 -12z"/>
<path d="M8510 583 c0 -5 7 -18 15 -29 12 -16 14 -16 15 -3 0 9 -7 22 -15 29
-8 7 -15 8 -15 3z"/>
<path d="M8917 574 c-9 -10 2 -24 18 -24 9 0 12 6 9 15 -6 16 -17 19 -27 9z"/>
<path d="M1649 443 c14 -26 81 -96 86 -91 3 3 -9 20 -25 38 -17 19 -30 36 -30
39 0 4 -9 12 -21 19 -18 12 -19 11 -10 -5z"/>
<path d="M8110 411 c0 -10 40 -22 52 -15 16 10 7 20 -22 22 -16 1 -30 -2 -30
-7z"/>
<path d="M8058 403 c7 -3 16 -2 19 1 4 3 -2 6 -13 5 -11 0 -14 -3 -6 -6z"/>
<path d="M9580 151 c0 -6 5 -13 10 -16 6 -3 10 1 10 9 0 9 -4 16 -10 16 -5 0
-10 -4 -10 -9z"/>
<path d="M9117 105 c-10 -14 -15 -29 -12 -35 8 -13 45 21 45 42 0 25 -12 22
-33 -7z"/>
<path d="M6846 21 l-19 -21 66 0 c68 0 90 13 40 23 -16 3 -37 8 -48 12 -14 4
-27 0 -39 -14z"/>
<path d="M8320 20 c0 -13 7 -20 19 -20 14 0 18 5 14 20 -7 26 -33 26 -33 0z"/>
<path d="M8551 14 c0 -11 3 -14 6 -6 3 7 2 16 -1 19 -3 4 -6 -2 -5 -13z"/>
<path d="M9231 14 c0 -11 3 -14 6 -6 3 7 2 16 -1 19 -3 4 -6 -2 -5 -13z"/>
<path d="M9095 10 c-3 -5 1 -10 9 -10 9 0 16 5 16 10 0 6 -4 10 -9 10 -6 0
-13 -4 -16 -10z"/>
</g>
</svg>
